<svg width="38" height="38" viewBox="0 0 38 38" fill="none" xmlns="http://www.w3.org/2000/svg">
<g filter="url(#filter0_dd_86_478)">
<g clip-path="url(#clip0_86_478)">
<rect x="3" y="2" width="32" height="32" rx="8" fill="black"/>
<rect x="3" y="2" width="32" height="32" rx="8" fill="url(#paint0_linear_86_478)"/>
<path fill-rule="evenodd" clip-rule="evenodd" d="M18.9998 4.03885C11.2892 4.03885 5.03861 10.2895 5.03861 18C5.03861 25.7106 11.2892 31.9612 18.9998 31.9612C26.7103 31.9612 32.9609 25.7106 32.9609 18C32.9609 10.2895 26.7103 4.03885 18.9998 4.03885ZM4.96094 18C4.96094 10.2466 11.2463 3.96118 18.9998 3.96118C26.7532 3.96118 33.0386 10.2466 33.0386 18C33.0386 25.7535 26.7532 32.0389 18.9998 32.0389C11.2463 32.0389 4.96094 25.7535 4.96094 18Z" fill="black"/>
<path fill-rule="evenodd" clip-rule="evenodd" d="M19 14.0779C16.8338 14.0779 15.0777 15.834 15.0777 18.0002C15.0777 20.1665 16.8338 21.9226 19 21.9226C21.1662 21.9226 22.9223 20.1665 22.9223 18.0002C22.9223 15.834 21.1662 14.0779 19 14.0779ZM15 18.0002C15 15.7911 16.7909 14.0002 19 14.0002C21.2091 14.0002 23 15.7911 23 18.0002C23 20.2094 21.2091 22.0002 19 22.0002C16.7909 22.0002 15 20.2094 15 18.0002Z" fill="black"/>
<path fill-rule="evenodd" clip-rule="evenodd" d="M19.0004 15.3201C17.5205 15.3201 16.3208 16.5198 16.3208 17.9997C16.3208 19.4796 17.5205 20.6793 19.0004 20.6793C20.4804 20.6793 21.6801 19.4796 21.6801 17.9997C21.6801 16.5198 20.4804 15.3201 19.0004 15.3201ZM16.2432 17.9997C16.2432 16.4769 17.4776 15.2424 19.0004 15.2424C20.5233 15.2424 21.7577 16.4769 21.7577 17.9997C21.7577 19.5225 20.5233 20.757 19.0004 20.757C17.4776 20.757 16.2432 19.5225 16.2432 17.9997Z" fill="black"/>
<path d="M18.9609 2H19.0386V34H18.9609V2Z" fill="black"/>
<path d="M35 17.9609L35 18.0386L3 18.0386L3 17.9609L35 17.9609Z" fill="black"/>
<path d="M29.6021 2H29.6797V34H29.6021V2Z" fill="black"/>
<path d="M13.6406 2H13.7183V34H13.6406V2Z" fill="black"/>
<path d="M24.2817 2H24.3594V34H24.2817V2Z" fill="black"/>
<path d="M8.32031 2H8.39798V34H8.32031V2Z" fill="black"/>
<path d="M35 28.6016L35 28.6792L3 28.6792L3 28.6016L35 28.6016Z" fill="black"/>
<path d="M35 12.6406L35 12.7183L3 12.7183L3 12.6406L35 12.6406Z" fill="black"/>
<path d="M35 23.2812L35 23.3589L3 23.3589L3 23.2812L35 23.2812Z" fill="black"/>
<path d="M35 7.32031L35 7.39798L3 7.39798L3 7.32031L35 7.32031Z" fill="black"/>
</g>
<rect x="3.15" y="2.15" width="31.7" height="31.7" rx="7.85" stroke="black" stroke-width="0.3"/>
</g>
<path d="M16.4 9.28H17.552V24.088H25.496V25.24H16.4V9.28ZM13.112 9.28H14.264V26.848H25.496V28H13.112V9.28Z" fill="#009FFF"/>
<defs>
<filter id="filter0_dd_86_478" x="0" y="0" width="38" height="38" filterUnits="userSpaceOnUse" color-interpolation-filters="sRGB">
<feFlood flood-opacity="0" result="BackgroundImageFix"/>
<feColorMatrix in="SourceAlpha" type="matrix" values="0 0 0 0 0 0 0 0 0 0 0 0 0 0 0 0 0 0 127 0" result="hardAlpha"/>
<feOffset dy="1"/>
<feGaussianBlur stdDeviation="1"/>
<feColorMatrix type="matrix" values="0 0 0 0 0.0627451 0 0 0 0 0.0941176 0 0 0 0 0.156863 0 0 0 0.06 0"/>
<feBlend mode="normal" in2="BackgroundImageFix" result="effect1_dropShadow_86_478"/>
<feColorMatrix in="SourceAlpha" type="matrix" values="0 0 0 0 0 0 0 0 0 0 0 0 0 0 0 0 0 0 127 0" result="hardAlpha"/>
<feOffset dy="1"/>
<feGaussianBlur stdDeviation="1.5"/>
<feColorMatrix type="matrix" values="0 0 0 0 0.0627451 0 0 0 0 0.0941176 0 0 0 0 0.156863 0 0 0 0.1 0"/>
<feBlend mode="normal" in2="effect1_dropShadow_86_478" result="effect2_dropShadow_86_478"/>
<feBlend mode="normal" in="SourceGraphic" in2="effect2_dropShadow_86_478" result="shape"/>
</filter>
<linearGradient id="paint0_linear_86_478" x1="19" y1="2" x2="19" y2="34" gradientUnits="userSpaceOnUse">
<stop stop-color="#181719"/>
<stop offset="1"/>
</linearGradient>
<clipPath id="clip0_86_478">
<rect x="3" y="2" width="32" height="32" rx="8" fill="white"/>
</clipPath>
</defs>
</svg>

