<svg width="25" height="24" viewBox="0 0 25 24" fill="none" xmlns="http://www.w3.org/2000/svg">
<path d="M0.25 0L2.36765 21.4737L12.25 24L22.1324 21.4737C22.8382 14.316 23.5441 7.15768 24.25 0H0.25ZM1.79136 1.26316H22.7086L20.8116 20.4979L12.25 22.6863L3.68842 20.4979L1.79136 1.26316ZM6.99173 5.05263L6.31342 12.6316H15.483L15.1935 15.7895L12.25 16.1805L9.34237 15.7895L9.21415 14.5263H6.48989L6.76562 17.6842L12.2431 18.9474L17.7275 17.6842L18.4265 10.1053H9.48989L9.71599 7.57895H15.6167L15.7794 8.8421H18.3906L17.8971 5.05263H6.99173Z" fill="#22D3EE"/>
</svg>
