<svg width="25" height="24" viewBox="0 0 25 24" fill="none" xmlns="http://www.w3.org/2000/svg">
<path d="M1.77455 0C0.939732 0 0.25 0.689732 0.25 1.52455V22.4754C0.25 23.3103 0.939732 24 1.77455 24H22.7254C23.5603 24 24.25 23.3125 24.25 22.4754V1.52455C24.25 0.689732 23.5625 0 22.7254 0H1.77455ZM1.77455 1.14286H22.7254C22.9375 1.14286 23.1071 1.3125 23.1071 1.52455V22.4754C23.1071 22.6875 22.9375 22.8571 22.7254 22.8571H1.77455C1.5625 22.8571 1.39286 22.6875 1.39286 22.4754V1.52455C1.39286 1.3125 1.5625 1.14286 1.77455 1.14286ZM11.1071 10.8571V18.0424C11.1071 19.1451 10.6897 19.4286 9.96429 19.4286C9.20536 19.4286 8.67857 18.9554 8.33036 18.3415L6.53571 19.4286C7.0558 20.529 8.33036 21.7143 10.0982 21.7143C12.0536 21.7143 13.3929 20.6741 13.3929 18.3906V10.8571H11.1071ZM18.2232 10.8571C16.2768 10.8571 15.029 12.1027 15.029 13.7388C15.029 15.5134 16.0759 16.3527 17.6496 17.0223L18.1942 17.2567C19.1875 17.692 19.6786 17.9576 19.6786 18.7054C19.6786 19.3281 19.2054 19.779 18.3013 19.779C17.2254 19.779 16.7165 19.0491 16.25 18.2857L14.5357 19.4286C15.1763 20.6942 16.3259 21.7143 18.3504 21.7143C20.4219 21.7143 21.9643 20.6384 21.9643 18.6763C21.9643 16.8549 20.9196 16.0446 19.0647 15.25L18.5201 15.0179C17.5848 14.6116 17.1786 14.3482 17.1786 13.6942C17.1786 13.1652 17.5848 12.7589 18.2232 12.7589C18.8504 12.7589 19.2522 13.0246 19.625 13.6942L21.3237 12.6049C20.6071 11.3393 19.6094 10.8571 18.2232 10.8571Z" fill="#22D3EE"/>
</svg>
