<svg width="181" height="40" viewBox="0 0 181 40" fill="none" xmlns="http://www.w3.org/2000/svg">
<path d="M37.2852 19.2578V22H28.6953V19.2578H37.2852ZM29.832 4.9375V22H26.3164V4.9375H29.832ZM45.9242 4.9375H49.4281V16.2109C49.4281 17.5234 49.1469 18.6289 48.5844 19.5273C48.0297 20.4258 47.2602 21.1016 46.2758 21.5547C45.2992 22.0078 44.1742 22.2344 42.9008 22.2344C41.6273 22.2344 40.4945 22.0078 39.5023 21.5547C38.518 21.1016 37.7445 20.4258 37.182 19.5273C36.6273 18.6289 36.35 17.5234 36.35 16.2109V4.9375H39.8656V16.2109C39.8656 16.9766 39.9867 17.6016 40.2289 18.0859C40.4711 18.5703 40.8188 18.9258 41.2719 19.1523C41.7328 19.3789 42.2758 19.4922 42.9008 19.4922C43.5414 19.4922 44.0844 19.3789 44.5297 19.1523C44.9828 18.9258 45.3266 18.5703 45.5609 18.0859C45.8031 17.6016 45.9242 16.9766 45.9242 16.2109V4.9375ZM59.8133 16.3398H63.3172C63.2469 17.4883 62.9305 18.5078 62.368 19.3984C61.8133 20.2891 61.0359 20.9844 60.0359 21.4844C59.0438 21.9844 57.8484 22.2344 56.45 22.2344C55.3563 22.2344 54.3758 22.0469 53.5086 21.6719C52.6414 21.2891 51.8992 20.7422 51.282 20.0312C50.6727 19.3203 50.2078 18.4609 49.8875 17.4531C49.5672 16.4453 49.407 15.3164 49.407 14.0664V12.8828C49.407 11.6328 49.5711 10.5039 49.8992 9.49609C50.2352 8.48047 50.7117 7.61719 51.3289 6.90625C51.9539 6.19531 52.7 5.64844 53.5672 5.26562C54.4344 4.88281 55.4031 4.69141 56.4734 4.69141C57.8953 4.69141 59.0945 4.94922 60.0711 5.46484C61.0555 5.98047 61.8172 6.69141 62.3563 7.59766C62.9031 8.50391 63.2313 9.53516 63.3406 10.6914H59.825C59.7859 10.0039 59.6492 9.42188 59.4148 8.94531C59.1805 8.46094 58.825 8.09766 58.3484 7.85547C57.8797 7.60547 57.2547 7.48047 56.4734 7.48047C55.8875 7.48047 55.3758 7.58984 54.9383 7.80859C54.5008 8.02734 54.1336 8.35938 53.8367 8.80469C53.5398 9.25 53.3172 9.8125 53.1688 10.4922C53.0281 11.1641 52.9578 11.9531 52.9578 12.8594V14.0664C52.9578 14.9492 53.0242 15.7266 53.157 16.3984C53.2898 17.0625 53.493 17.625 53.7664 18.0859C54.0477 18.5391 54.407 18.8828 54.8445 19.1172C55.2898 19.3438 55.825 19.457 56.45 19.457C57.1844 19.457 57.7898 19.3398 58.2664 19.1055C58.743 18.8711 59.1063 18.5234 59.3563 18.0625C59.6141 17.6016 59.7664 17.0273 59.8133 16.3398ZM70.1633 7.85547L65.5227 22H61.7844L68.1242 4.9375H70.5031L70.1633 7.85547ZM74.0187 22L69.3664 7.85547L68.9914 4.9375H71.3937L77.7687 22H74.0187ZM73.8078 15.6484V18.4023H64.7961V15.6484H73.8078ZM85.8336 17.5352C85.8336 17.2305 85.7867 16.957 85.693 16.7148C85.607 16.4648 85.443 16.2383 85.2008 16.0352C84.9586 15.8242 84.6188 15.6172 84.1813 15.4141C83.7438 15.2109 83.1773 15 82.482 14.7812C81.7086 14.5312 80.9742 14.25 80.2789 13.9375C79.5914 13.625 78.982 13.2617 78.4508 12.8477C77.9273 12.4258 77.5133 11.9375 77.2086 11.3828C76.9117 10.8281 76.7633 10.1836 76.7633 9.44922C76.7633 8.73828 76.9195 8.09375 77.232 7.51562C77.5445 6.92969 77.982 6.42969 78.5445 6.01562C79.107 5.59375 79.7711 5.26953 80.5367 5.04297C81.3102 4.81641 82.1578 4.70312 83.0797 4.70312C84.3375 4.70312 85.4352 4.92969 86.3727 5.38281C87.3102 5.83594 88.0367 6.45703 88.5523 7.24609C89.0758 8.03516 89.3375 8.9375 89.3375 9.95312H85.8453C85.8453 9.45312 85.7398 9.01562 85.5289 8.64062C85.3258 8.25781 85.0133 7.95703 84.5914 7.73828C84.1773 7.51953 83.6539 7.41016 83.0211 7.41016C82.4117 7.41016 81.9039 7.50391 81.4977 7.69141C81.0914 7.87109 80.7867 8.11719 80.5836 8.42969C80.3805 8.73438 80.2789 9.07812 80.2789 9.46094C80.2789 9.75 80.3492 10.0117 80.4898 10.2461C80.6383 10.4805 80.857 10.6992 81.1461 10.9023C81.4352 11.1055 81.7906 11.2969 82.2125 11.4766C82.6344 11.6562 83.1227 11.832 83.6773 12.0039C84.607 12.2852 85.4234 12.6016 86.1266 12.9531C86.8375 13.3047 87.4313 13.6992 87.9078 14.1367C88.3844 14.5742 88.7438 15.0703 88.9859 15.625C89.2281 16.1797 89.3492 16.8086 89.3492 17.5117C89.3492 18.2539 89.2047 18.918 88.9156 19.5039C88.6266 20.0898 88.2086 20.5859 87.6617 20.9922C87.1148 21.3984 86.4625 21.707 85.7047 21.918C84.9469 22.1289 84.0992 22.2344 83.1617 22.2344C82.318 22.2344 81.4859 22.125 80.6656 21.9062C79.8453 21.6797 79.0992 21.3398 78.4273 20.8867C77.7633 20.4336 77.232 19.8555 76.8336 19.1523C76.4352 18.4492 76.2359 17.6172 76.2359 16.6562H79.7633C79.7633 17.1875 79.8453 17.6367 80.0094 18.0039C80.1734 18.3711 80.4039 18.668 80.7008 18.8945C81.0055 19.1211 81.3648 19.2852 81.7789 19.3867C82.2008 19.4883 82.6617 19.5391 83.1617 19.5391C83.7711 19.5391 84.2711 19.4531 84.6617 19.2812C85.0602 19.1094 85.3531 18.8711 85.5406 18.5664C85.7359 18.2617 85.8336 17.918 85.8336 17.5352ZM106.803 4.9375V22H103.287L96.432 10.5625V22H92.9164V4.9375H96.432L103.299 16.3867V4.9375H106.803ZM118.911 19.2578V22H109.829V19.2578H118.911ZM110.977 4.9375V22H107.462V4.9375H110.977ZM117.727 11.8867V14.5586H109.829V11.8867H117.727ZM118.899 4.9375V7.69141H109.829V4.9375H118.899ZM124.714 18.4375L128.734 4.9375H132.648L126.706 22H124.128L124.714 18.4375ZM121.011 4.9375L125.019 18.4375L125.628 22H123.027L117.12 4.9375H121.011ZM143.291 19.2578V22H134.209V19.2578H143.291ZM135.357 4.9375V22H131.841V4.9375H135.357ZM142.107 11.8867V14.5586H134.209V11.8867H142.107ZM143.279 4.9375V7.69141H134.209V4.9375H143.279ZM151.824 17.5352C151.824 17.2305 151.777 16.957 151.684 16.7148C151.598 16.4648 151.434 16.2383 151.191 16.0352C150.949 15.8242 150.609 15.6172 150.172 15.4141C149.734 15.2109 149.168 15 148.473 14.7812C147.699 14.5312 146.965 14.25 146.27 13.9375C145.582 13.625 144.973 13.2617 144.441 12.8477C143.918 12.4258 143.504 11.9375 143.199 11.3828C142.902 10.8281 142.754 10.1836 142.754 9.44922C142.754 8.73828 142.91 8.09375 143.223 7.51562C143.535 6.92969 143.973 6.42969 144.535 6.01562C145.098 5.59375 145.762 5.26953 146.527 5.04297C147.301 4.81641 148.148 4.70312 149.07 4.70312C150.328 4.70312 151.426 4.92969 152.363 5.38281C153.301 5.83594 154.027 6.45703 154.543 7.24609C155.066 8.03516 155.328 8.9375 155.328 9.95312H151.836C151.836 9.45312 151.73 9.01562 151.52 8.64062C151.316 8.25781 151.004 7.95703 150.582 7.73828C150.168 7.51953 149.645 7.41016 149.012 7.41016C148.402 7.41016 147.895 7.50391 147.488 7.69141C147.082 7.87109 146.777 8.11719 146.574 8.42969C146.371 8.73438 146.27 9.07812 146.27 9.46094C146.27 9.75 146.34 10.0117 146.48 10.2461C146.629 10.4805 146.848 10.6992 147.137 10.9023C147.426 11.1055 147.781 11.2969 148.203 11.4766C148.625 11.6562 149.113 11.832 149.668 12.0039C150.598 12.2852 151.414 12.6016 152.117 12.9531C152.828 13.3047 153.422 13.6992 153.898 14.1367C154.375 14.5742 154.734 15.0703 154.977 15.625C155.219 16.1797 155.34 16.8086 155.34 17.5117C155.34 18.2539 155.195 18.918 154.906 19.5039C154.617 20.0898 154.199 20.5859 153.652 20.9922C153.105 21.3984 152.453 21.707 151.695 21.918C150.938 22.1289 150.09 22.2344 149.152 22.2344C148.309 22.2344 147.477 22.125 146.656 21.9062C145.836 21.6797 145.09 21.3398 144.418 20.8867C143.754 20.4336 143.223 19.8555 142.824 19.1523C142.426 18.4492 142.227 17.6172 142.227 16.6562H145.754C145.754 17.1875 145.836 17.6367 146 18.0039C146.164 18.3711 146.395 18.668 146.691 18.8945C146.996 19.1211 147.355 19.2852 147.77 19.3867C148.191 19.4883 148.652 19.5391 149.152 19.5391C149.762 19.5391 150.262 19.4531 150.652 19.2812C151.051 19.1094 151.344 18.8711 151.531 18.5664C151.727 18.2617 151.824 17.918 151.824 17.5352Z" fill="white"/>
<path d="M3.24902 37H1.76465L1.77441 36.2334H3.24902C3.75684 36.2334 4.18001 36.1276 4.51855 35.916C4.8571 35.7012 5.111 35.4017 5.28027 35.0176C5.4528 34.6302 5.53906 34.1777 5.53906 33.6602V33.2256C5.53906 32.8187 5.49023 32.4574 5.39258 32.1416C5.29492 31.8226 5.15169 31.554 4.96289 31.3359C4.77409 31.1146 4.54297 30.9469 4.26953 30.833C3.99935 30.7191 3.68848 30.6621 3.33691 30.6621H1.73535V29.8906H3.33691C3.80241 29.8906 4.22721 29.9688 4.61133 30.125C4.99544 30.278 5.32585 30.501 5.60254 30.7939C5.88249 31.0837 6.09733 31.4352 6.24707 31.8486C6.39681 32.2588 6.47168 32.721 6.47168 33.2354V33.6602C6.47168 34.1745 6.39681 34.6383 6.24707 35.0518C6.09733 35.4619 5.88086 35.8118 5.59766 36.1016C5.31771 36.3913 4.97917 36.6143 4.58203 36.7705C4.18815 36.9235 3.74382 37 3.24902 37ZM2.26758 29.8906V37H1.3252V29.8906H2.26758ZM14.6043 36.2334V37H10.8396V36.2334H14.6043ZM11.0301 29.8906V37H10.0877V29.8906H11.0301ZM14.1062 32.9473V33.7139H10.8396V32.9473H14.1062ZM14.5555 29.8906V30.6621H10.8396V29.8906H14.5555ZM21.7604 35.2031C21.7604 35.0371 21.7343 34.8906 21.6822 34.7637C21.6334 34.6335 21.5455 34.5163 21.4186 34.4121C21.2949 34.3079 21.1223 34.2087 20.901 34.1143C20.6829 34.0199 20.4062 33.9238 20.0709 33.8262C19.7193 33.722 19.402 33.6064 19.1187 33.4795C18.8355 33.3493 18.593 33.2012 18.3912 33.0352C18.1894 32.8691 18.0348 32.6787 17.9273 32.4639C17.8199 32.249 17.7662 32.0033 17.7662 31.7266C17.7662 31.4499 17.8232 31.1943 17.9371 30.96C18.051 30.7256 18.2138 30.5221 18.4254 30.3496C18.6402 30.1738 18.8958 30.0371 19.192 29.9395C19.4882 29.8418 19.8186 29.793 20.1832 29.793C20.7171 29.793 21.1695 29.8955 21.5406 30.1006C21.915 30.3024 22.1998 30.5677 22.3951 30.8965C22.5904 31.222 22.6881 31.5703 22.6881 31.9414H21.7506C21.7506 31.6745 21.6936 31.4385 21.5797 31.2334C21.4658 31.0251 21.2932 30.8623 21.0621 30.7451C20.831 30.6247 20.538 30.5645 20.1832 30.5645C19.8479 30.5645 19.5712 30.6149 19.3531 30.7158C19.135 30.8167 18.9723 30.9535 18.8648 31.126C18.7607 31.2985 18.7086 31.4954 18.7086 31.7168C18.7086 31.8665 18.7395 32.0033 18.8014 32.127C18.8665 32.2474 18.9658 32.3597 19.0992 32.4639C19.2359 32.568 19.4085 32.6641 19.6168 32.752C19.8284 32.8398 20.0807 32.9245 20.3736 33.0059C20.7773 33.1198 21.1256 33.2467 21.4186 33.3867C21.7115 33.5267 21.9524 33.6846 22.1412 33.8604C22.3333 34.0329 22.4749 34.2298 22.566 34.4512C22.6604 34.6693 22.7076 34.9167 22.7076 35.1934C22.7076 35.4831 22.649 35.7451 22.5318 35.9795C22.4146 36.2139 22.247 36.4141 22.0289 36.5801C21.8108 36.7461 21.5488 36.8747 21.2428 36.9658C20.94 37.0537 20.6015 37.0977 20.2271 37.0977C19.8984 37.0977 19.5745 37.0521 19.2555 36.9609C18.9397 36.8698 18.6516 36.7331 18.3912 36.5508C18.134 36.3685 17.9273 36.1439 17.7711 35.877C17.6181 35.6068 17.5416 35.2943 17.5416 34.9395H18.4791C18.4791 35.1836 18.5263 35.3936 18.6207 35.5693C18.7151 35.7419 18.8437 35.8851 19.0064 35.999C19.1725 36.113 19.3596 36.1976 19.568 36.2529C19.7796 36.305 19.9993 36.3311 20.2271 36.3311C20.5559 36.3311 20.8342 36.2855 21.0621 36.1943C21.29 36.1032 21.4625 35.973 21.5797 35.8037C21.7001 35.6344 21.7604 35.4342 21.7604 35.2031ZM30.6254 36.2334V37H26.8607V36.2334H30.6254ZM27.0512 29.8906V37H26.1088V29.8906H27.0512ZM30.1273 32.9473V33.7139H26.8607V32.9473H30.1273ZM30.5766 29.8906V30.6621H26.8607V29.8906H30.5766ZM39.4611 29.8906V37H38.5139L34.9348 31.5166V37H33.9924V29.8906H34.9348L38.5285 35.3887V29.8906H39.4611ZM45.626 35.9209L47.7207 29.8906H48.7412L46.1094 37H45.3818L45.626 35.9209ZM43.668 29.8906L45.7432 35.9209L46.002 37H45.2744L42.6475 29.8906H43.668ZM57.3035 33.2207V33.6699C57.3035 34.2038 57.2368 34.6823 57.1033 35.1055C56.9699 35.5286 56.7778 35.8883 56.5271 36.1846C56.2765 36.4808 55.9754 36.707 55.6238 36.8633C55.2755 37.0195 54.8849 37.0977 54.452 37.0977C54.032 37.0977 53.6463 37.0195 53.2947 36.8633C52.9464 36.707 52.6437 36.4808 52.3865 36.1846C52.1326 35.8883 51.9357 35.5286 51.7957 35.1055C51.6557 34.6823 51.5857 34.2038 51.5857 33.6699V33.2207C51.5857 32.6868 51.6541 32.21 51.7908 31.79C51.9308 31.3669 52.1277 31.0072 52.3816 30.7109C52.6355 30.4115 52.9367 30.1836 53.285 30.0273C53.6365 29.8711 54.0223 29.793 54.4422 29.793C54.8751 29.793 55.2658 29.8711 55.6141 30.0273C55.9656 30.1836 56.2667 30.4115 56.5174 30.7109C56.7713 31.0072 56.965 31.3669 57.0984 31.79C57.2352 32.21 57.3035 32.6868 57.3035 33.2207ZM56.3709 33.6699V33.2109C56.3709 32.7878 56.327 32.4134 56.2391 32.0879C56.1544 31.7624 56.0291 31.4889 55.8631 31.2676C55.6971 31.0462 55.4936 30.8786 55.2527 30.7646C55.0151 30.6507 54.7449 30.5938 54.4422 30.5938C54.1492 30.5938 53.8839 30.6507 53.6463 30.7646C53.4119 30.8786 53.2101 31.0462 53.0408 31.2676C52.8748 31.4889 52.7462 31.7624 52.6551 32.0879C52.5639 32.4134 52.5184 32.7878 52.5184 33.2109V33.6699C52.5184 34.0964 52.5639 34.474 52.6551 34.8027C52.7462 35.1283 52.8764 35.4033 53.0457 35.6279C53.2182 35.8493 53.4217 36.0169 53.6561 36.1309C53.8937 36.2448 54.159 36.3018 54.452 36.3018C54.7579 36.3018 55.0298 36.2448 55.2674 36.1309C55.505 36.0169 55.7052 35.8493 55.868 35.6279C56.034 35.4033 56.1593 35.1283 56.2439 34.8027C56.3286 34.474 56.3709 34.0964 56.3709 33.6699ZM65.2262 36.2334V37H61.6715V36.2334H65.2262ZM61.857 29.8906V37H60.9146V29.8906H61.857ZM69.9408 35.9209L72.0355 29.8906H73.0561L70.4242 37H69.6967L69.9408 35.9209ZM67.9828 29.8906L70.058 35.9209L70.3168 37H69.5893L66.9623 29.8906H67.9828ZM80.7297 36.2334V37H76.965V36.2334H80.7297ZM77.1555 29.8906V37H76.2131V29.8906H77.1555ZM80.2316 32.9473V33.7139H76.965V32.9473H80.2316ZM80.6809 29.8906V30.6621H76.965V29.8906H80.6809ZM86.0205 37H84.5361L84.5459 36.2334H86.0205C86.5283 36.2334 86.9515 36.1276 87.29 35.916C87.6286 35.7012 87.8825 35.4017 88.0518 35.0176C88.2243 34.6302 88.3105 34.1777 88.3105 33.6602V33.2256C88.3105 32.8187 88.2617 32.4574 88.1641 32.1416C88.0664 31.8226 87.9232 31.554 87.7344 31.3359C87.5456 31.1146 87.3145 30.9469 87.041 30.833C86.7708 30.7191 86.46 30.6621 86.1084 30.6621H84.5068V29.8906H86.1084C86.5739 29.8906 86.9987 29.9688 87.3828 30.125C87.7669 30.278 88.0973 30.501 88.374 30.7939C88.654 31.0837 88.8688 31.4352 89.0186 31.8486C89.1683 32.2588 89.2432 32.721 89.2432 33.2354V33.6602C89.2432 34.1745 89.1683 34.6383 89.0186 35.0518C88.8688 35.4619 88.6523 35.8118 88.3691 36.1016C88.0892 36.3913 87.7507 36.6143 87.3535 36.7705C86.9596 36.9235 86.5153 37 86.0205 37ZM85.0391 29.8906V37H84.0967V29.8906H85.0391ZM98.3328 33.2207V33.6699C98.3328 34.2038 98.2661 34.6823 98.1326 35.1055C97.9992 35.5286 97.8071 35.8883 97.5564 36.1846C97.3058 36.4808 97.0047 36.707 96.6531 36.8633C96.3048 37.0195 95.9142 37.0977 95.4812 37.0977C95.0613 37.0977 94.6756 37.0195 94.324 36.8633C93.9757 36.707 93.673 36.4808 93.4158 36.1846C93.1619 35.8883 92.965 35.5286 92.825 35.1055C92.685 34.6823 92.615 34.2038 92.615 33.6699V33.2207C92.615 32.6868 92.6834 32.21 92.8201 31.79C92.9601 31.3669 93.157 31.0072 93.4109 30.7109C93.6648 30.4115 93.9659 30.1836 94.3143 30.0273C94.6658 29.8711 95.0516 29.793 95.4715 29.793C95.9044 29.793 96.295 29.8711 96.6434 30.0273C96.9949 30.1836 97.296 30.4115 97.5467 30.7109C97.8006 31.0072 97.9943 31.3669 98.1277 31.79C98.2645 32.21 98.3328 32.6868 98.3328 33.2207ZM97.4002 33.6699V33.2109C97.4002 32.7878 97.3562 32.4134 97.2684 32.0879C97.1837 31.7624 97.0584 31.4889 96.8924 31.2676C96.7264 31.0462 96.5229 30.8786 96.282 30.7646C96.0444 30.6507 95.7742 30.5938 95.4715 30.5938C95.1785 30.5938 94.9132 30.6507 94.6756 30.7646C94.4412 30.8786 94.2394 31.0462 94.0701 31.2676C93.9041 31.4889 93.7755 31.7624 93.6844 32.0879C93.5932 32.4134 93.5477 32.7878 93.5477 33.2109V33.6699C93.5477 34.0964 93.5932 34.474 93.6844 34.8027C93.7755 35.1283 93.9057 35.4033 94.075 35.6279C94.2475 35.8493 94.451 36.0169 94.6853 36.1309C94.923 36.2448 95.1883 36.3018 95.4812 36.3018C95.7872 36.3018 96.059 36.2448 96.2967 36.1309C96.5343 36.0169 96.7345 35.8493 96.8973 35.6279C97.0633 35.4033 97.1886 35.1283 97.2732 34.8027C97.3579 34.474 97.4002 34.0964 97.4002 33.6699ZM101.944 29.8906H104.297C104.831 29.8906 105.282 29.972 105.65 30.1348C106.021 30.2975 106.303 30.5384 106.495 30.8574C106.69 31.1732 106.788 31.5622 106.788 32.0244C106.788 32.3499 106.721 32.6478 106.588 32.918C106.457 33.1849 106.268 33.4128 106.021 33.6016C105.777 33.7871 105.484 33.9255 105.142 34.0166L104.879 34.1191H102.667L102.657 33.3525H104.327C104.665 33.3525 104.947 33.2939 105.171 33.1768C105.396 33.0563 105.565 32.8952 105.679 32.6934C105.793 32.4915 105.85 32.2686 105.85 32.0244C105.85 31.751 105.796 31.5117 105.689 31.3066C105.582 31.1016 105.412 30.9437 105.181 30.833C104.953 30.7191 104.659 30.6621 104.297 30.6621H102.886V37H101.944V29.8906ZM106.099 37L104.371 33.7773L105.352 33.7725L107.105 36.9414V37H106.099ZM115.929 29.8906V37H114.987V29.8906H115.929ZM118.907 33.0889V33.8604H115.724V33.0889H118.907ZM119.391 29.8906V30.6621H115.724V29.8906H119.391ZM122.714 29.8906H125.067C125.601 29.8906 126.052 29.972 126.42 30.1348C126.791 30.2975 127.073 30.5384 127.265 30.8574C127.46 31.1732 127.558 31.5622 127.558 32.0244C127.558 32.3499 127.491 32.6478 127.357 32.918C127.227 33.1849 127.038 33.4128 126.791 33.6016C126.547 33.7871 126.254 33.9255 125.912 34.0166L125.648 34.1191H123.437L123.427 33.3525H125.097C125.435 33.3525 125.717 33.2939 125.941 33.1768C126.166 33.0563 126.335 32.8952 126.449 32.6934C126.563 32.4915 126.62 32.2686 126.62 32.0244C126.62 31.751 126.566 31.5117 126.459 31.3066C126.352 31.1016 126.182 30.9437 125.951 30.833C125.723 30.7191 125.429 30.6621 125.067 30.6621H123.656V37H122.714V29.8906ZM126.869 37L125.141 33.7773L126.122 33.7725L127.875 36.9414V37H126.869ZM136.55 33.2207V33.6699C136.55 34.2038 136.483 34.6823 136.349 35.1055C136.216 35.5286 136.024 35.8883 135.773 36.1846C135.523 36.4808 135.221 36.707 134.87 36.8633C134.522 37.0195 134.131 37.0977 133.698 37.0977C133.278 37.0977 132.892 37.0195 132.541 36.8633C132.193 36.707 131.89 36.4808 131.633 36.1846C131.379 35.8883 131.182 35.5286 131.042 35.1055C130.902 34.6823 130.832 34.2038 130.832 33.6699V33.2207C130.832 32.6868 130.9 32.21 131.037 31.79C131.177 31.3669 131.374 31.0072 131.628 30.7109C131.882 30.4115 132.183 30.1836 132.531 30.0273C132.883 29.8711 133.268 29.793 133.688 29.793C134.121 29.793 134.512 29.8711 134.86 30.0273C135.212 30.1836 135.513 30.4115 135.763 30.7109C136.017 31.0072 136.211 31.3669 136.345 31.79C136.481 32.21 136.55 32.6868 136.55 33.2207ZM135.617 33.6699V33.2109C135.617 32.7878 135.573 32.4134 135.485 32.0879C135.401 31.7624 135.275 31.4889 135.109 31.2676C134.943 31.0462 134.74 30.8786 134.499 30.7646C134.261 30.6507 133.991 30.5938 133.688 30.5938C133.395 30.5938 133.13 30.6507 132.892 30.7646C132.658 30.8786 132.456 31.0462 132.287 31.2676C132.121 31.4889 131.992 31.7624 131.901 32.0879C131.81 32.4134 131.764 32.7878 131.764 33.2109V33.6699C131.764 34.0964 131.81 34.474 131.901 34.8027C131.992 35.1283 132.123 35.4033 132.292 35.6279C132.464 35.8493 132.668 36.0169 132.902 36.1309C133.14 36.2448 133.405 36.3018 133.698 36.3018C134.004 36.3018 134.276 36.2448 134.513 36.1309C134.751 36.0169 134.951 35.8493 135.114 35.6279C135.28 35.4033 135.405 35.1283 135.49 34.8027C135.575 34.474 135.617 34.0964 135.617 33.6699ZM145.629 29.8906V37H144.682L141.103 31.5166V37H140.161V29.8906H141.103L144.697 35.3887V29.8906H145.629ZM151.98 29.8906V37H151.052V29.8906H151.98ZM154.265 29.8906V30.6621H148.772V29.8906H154.265ZM162.036 36.2334V37H158.272V36.2334H162.036ZM158.462 29.8906V37H157.52V29.8906H158.462ZM161.538 32.9473V33.7139H158.272V32.9473H161.538ZM161.988 29.8906V30.6621H158.272V29.8906H161.988ZM170.872 29.8906V37H169.925L166.346 31.5166V37H165.403V29.8906H166.346L169.939 35.3887V29.8906H170.872ZM176.666 37H175.181L175.191 36.2334H176.666C177.174 36.2334 177.597 36.1276 177.935 35.916C178.274 35.7012 178.528 35.4017 178.697 35.0176C178.87 34.6302 178.956 34.1777 178.956 33.6602V33.2256C178.956 32.8187 178.907 32.4574 178.809 32.1416C178.712 31.8226 178.568 31.554 178.38 31.3359C178.191 31.1146 177.96 30.9469 177.686 30.833C177.416 30.7191 177.105 30.6621 176.754 30.6621H175.152V29.8906H176.754C177.219 29.8906 177.644 29.9688 178.028 30.125C178.412 30.278 178.743 30.501 179.019 30.7939C179.299 31.0837 179.514 31.4352 179.664 31.8486C179.814 32.2588 179.888 32.721 179.888 33.2354V33.6602C179.888 34.1745 179.814 34.6383 179.664 35.0518C179.514 35.4619 179.298 35.8118 179.014 36.1016C178.735 36.3913 178.396 36.6143 177.999 36.7705C177.605 36.9235 177.161 37 176.666 37ZM175.684 29.8906V37H174.742V29.8906H175.684Z" fill="#22D3EE"/>
</svg>
