<svg width="25" height="24" viewBox="0 0 25 24" fill="none" xmlns="http://www.w3.org/2000/svg">
<path d="M7.45 7.2L8.09854 6.7316C7.89538 6.4503 7.53403 6.33205 7.20387 6.4388C6.8737 6.54557 6.65 6.85301 6.65 7.2H7.45ZM12.25 22.4C6.50624 22.4 1.85 17.7438 1.85 12H0.25C0.25 18.6274 5.62258 24 12.25 24V22.4ZM22.65 12C22.65 17.7438 17.9938 22.4 12.25 22.4V24C18.8774 24 24.25 18.6274 24.25 12H22.65ZM12.25 1.6C17.9938 1.6 22.65 6.25624 22.65 12H24.25C24.25 5.37258 18.8774 0 12.25 0V1.6ZM12.25 0C5.62258 0 0.25 5.37258 0.25 12H1.85C1.85 6.25624 6.50624 1.6 12.25 1.6V0ZM8.25 19.2V7.2H6.65V19.2H8.25ZM6.80146 7.6684L17.2015 22.0683L18.4985 21.1317L8.09854 6.7316L6.80146 7.6684ZM16.25 6.4V16H17.85V6.4H16.25Z" fill="#22D3EE"/>
</svg>
