<svg width="21" height="24" viewBox="0 0 21 24" fill="none" xmlns="http://www.w3.org/2000/svg">
<path d="M19.3946 5.68763L11.1264 0.88669C10.6049 0.58969 9.926 0.58969 9.40044 0.88669L1.04394 5.68763C0.505813 5.99719 0.125 6.579 0.125 7.20132V16.7904C0.125 17.4128 0.51575 17.9948 1.05388 18.306L3.26169 19.56C4.31694 20.0798 4.68988 20.0798 5.17006 20.0798C6.7325 20.0798 7.625 19.1349 7.625 17.487V8.02013C7.625 7.88644 7.55544 7.6875 7.42419 7.6875H6.36987C6.23637 7.6875 5.9375 7.88644 5.9375 8.01994V17.4868C5.9375 18.2173 5.27675 18.9443 4.04187 18.3268L1.76056 17.0119C1.68106 16.9688 1.625 16.8819 1.625 16.7904V7.20132C1.625 7.11094 1.72906 7.02019 1.80913 6.97388L10.1386 2.18119C10.2164 2.13713 10.3308 2.13713 10.4084 2.18119L18.6363 6.97275C18.7151 7.02019 18.6873 7.10813 18.6873 7.20132V16.7904C18.6873 16.8819 18.7216 16.971 18.6438 17.0151L10.3777 21.8106C10.3068 21.8531 10.2189 21.8531 10.1412 21.8106L8.02119 20.5451C7.95725 20.508 7.88131 20.4947 7.82 20.529C7.23013 20.8633 7.12137 20.9078 6.56806 21.0996C6.43194 21.147 6.23112 21.2293 6.64494 21.4613L9.41956 23.1026C9.68446 23.2556 9.98497 23.3362 10.2909 23.3363C10.5988 23.3363 10.9003 23.2564 11.1659 23.1026L19.3944 18.306C19.9325 17.9925 20.1875 17.4128 20.1875 16.7904V7.20132C20.1875 6.579 19.9325 5.99869 19.3946 5.68763ZM12.8581 15.2709C10.6595 15.2709 10.1752 14.6644 10.0138 13.5711C9.995 13.4533 9.89506 13.3125 9.77525 13.3125H8.70069C8.56775 13.3125 8.46087 13.4738 8.46087 13.6061C8.46087 15.006 9.22194 16.7021 12.8583 16.7021C15.4906 16.7021 16.9998 15.6793 16.9998 13.8692C16.9998 12.0744 15.7872 11.6034 13.2344 11.2656C10.6541 10.9245 10.3919 10.7522 10.3919 10.1477C10.3919 9.64931 10.6139 8.98463 12.5246 8.98463C14.2317 8.98463 14.861 9.351 15.1199 10.5017C15.1421 10.6099 15.2409 10.6875 15.3524 10.6875H16.4313C16.4977 10.6875 16.5611 10.6607 16.6076 10.6133C16.6526 10.5623 16.6764 10.4983 16.6704 10.4297C16.5033 8.44819 15.1869 7.52475 12.5244 7.52475C10.1561 7.52475 8.74325 8.52488 8.74325 10.2013C8.74325 12.0197 10.1489 12.5222 12.4224 12.747C15.1421 13.0136 15.3536 13.4111 15.3536 13.9461C15.3536 14.8751 14.6077 15.2709 12.8581 15.2709Z" fill="#22D3EE"/>
</svg>
