<svg width="24" height="22" viewBox="0 0 24 22" fill="none" xmlns="http://www.w3.org/2000/svg">
<path d="M12.2503 13.1375C13.4308 13.1375 14.3878 12.1806 14.3878 11C14.3878 9.81954 13.4308 8.86255 12.2503 8.86255C11.0698 8.86255 10.1128 9.81954 10.1128 11C10.1128 12.1806 11.0698 13.1375 12.2503 13.1375Z" fill="#22D3EE"/>
<path d="M20.3689 7.47505C19.9564 7.32505 19.5252 7.17505 19.0752 7.0438C19.1877 6.5938 19.2814 6.1438 19.3564 5.71255C19.7502 3.23755 19.3189 1.4938 18.1189 0.818799C17.7627 0.612549 17.3689 0.518799 16.9189 0.518799C15.6064 0.518799 13.9377 1.4938 12.2502 3.12505C10.5627 1.4938 8.89394 0.518799 7.58144 0.518799C7.13144 0.518799 6.7377 0.612549 6.38144 0.818799C5.18145 1.51255 4.7502 3.2563 5.14395 5.71255C5.21895 6.1438 5.3127 6.5938 5.4252 7.0438C4.97519 7.17505 4.54395 7.3063 4.13145 7.47505C1.7877 8.37505 0.512695 9.61255 0.512695 11C0.512695 12.3876 1.80645 13.6251 4.13145 14.5251C4.54395 14.6751 4.97519 14.8251 5.4252 14.9563C5.3127 15.4063 5.21895 15.8563 5.14395 16.2875C4.7502 18.7626 5.18145 20.5063 6.38144 21.1813C6.7377 21.3876 7.13144 21.4813 7.58144 21.4813C8.91269 21.4813 10.5814 20.5063 12.2502 18.8751C13.9377 20.5063 15.6064 21.4813 16.9189 21.4813C17.3689 21.4813 17.7627 21.3876 18.1189 21.1813C19.3189 20.4876 19.7502 18.7438 19.3564 16.2875C19.2814 15.8563 19.1877 15.4063 19.0752 14.9563C19.5252 14.8251 19.9564 14.6938 20.3689 14.5251C22.7127 13.6251 23.9877 12.3876 23.9877 11C23.9877 9.61255 22.7127 8.37505 20.3689 7.47505ZM17.5939 1.7563C18.3627 2.2063 18.6252 3.5938 18.3064 5.56255C18.2502 5.9563 18.1564 6.3688 18.0439 6.80005C17.0689 6.57505 16.0377 6.42505 14.9502 6.3313C14.3127 5.4313 13.6564 4.62505 13.0002 3.8938C14.3877 2.52505 15.7939 1.58755 16.9377 1.58755C17.1814 1.58755 17.4064 1.6438 17.5939 1.7563ZM15.4939 12.8751C15.1564 13.475 14.7627 14.0751 14.3502 14.675C13.6564 14.7313 12.9627 14.7501 12.2502 14.7501C11.5189 14.7501 10.8252 14.7313 10.1502 14.675C9.73769 14.0751 9.36269 13.475 9.02519 12.8751C8.66894 12.2563 8.33144 11.6188 8.03144 11C8.33144 10.3813 8.66894 9.7438 9.02519 9.12505C9.36269 8.52505 9.75644 7.92505 10.1689 7.32505C10.8627 7.2688 11.5564 7.25005 12.2689 7.25005C13.0002 7.25005 13.6939 7.2688 14.3689 7.32505C14.7814 7.92505 15.1564 8.52505 15.4939 9.12505C15.8502 9.7438 16.1877 10.3813 16.4877 11C16.1689 11.6188 15.8502 12.2375 15.4939 12.8751ZM17.0502 12.2563C17.3314 12.9125 17.5564 13.55 17.7627 14.1876C17.1252 14.3376 16.4502 14.4501 15.7377 14.5438C15.9627 14.1876 16.2064 13.8126 16.4127 13.4188C16.6377 13.0251 16.8439 12.6313 17.0502 12.2563ZM12.2502 17.3376C11.8002 16.8501 11.3689 16.3251 10.9564 15.7813C11.3877 15.8001 11.8189 15.8188 12.2502 15.8188C12.6814 15.8188 13.1127 15.8001 13.5439 15.7813C13.1314 16.3251 12.7002 16.8501 12.2502 17.3376ZM8.76269 14.5251C8.05019 14.4313 7.37519 14.3188 6.73769 14.1688C6.94394 13.5501 7.16894 12.8938 7.45019 12.2375C7.65644 12.6125 7.86269 13.0063 8.08769 13.3813C8.31269 13.7938 8.53769 14.1501 8.76269 14.5251ZM7.45019 9.7438C7.16894 9.08755 6.94394 8.45005 6.73769 7.81255C7.37519 7.66255 8.05019 7.55005 8.76269 7.4563C8.53769 7.81255 8.29394 8.18755 8.08769 8.5813C7.86269 8.97505 7.65644 9.3688 7.45019 9.7438ZM12.2502 4.66255C12.7002 5.15005 13.1314 5.67505 13.5439 6.2188C13.1127 6.20005 12.6814 6.1813 12.2502 6.1813C11.8189 6.1813 11.3877 6.20005 10.9564 6.2188C11.3689 5.67505 11.8002 5.15005 12.2502 4.66255ZM16.4127 8.60005L15.7377 7.47505C16.4502 7.5688 17.1252 7.6813 17.7627 7.8313C17.5564 8.45005 17.3314 9.1063 17.0502 9.76255C16.8439 9.3688 16.6377 8.97505 16.4127 8.60005ZM6.19394 5.56255C5.8752 3.5938 6.13769 2.2063 6.90644 1.7563C7.09394 1.6438 7.31894 1.58755 7.56269 1.58755C8.68769 1.58755 10.0939 2.5063 11.5002 3.8938C10.8439 4.6063 10.1877 5.4313 9.55019 6.3313C8.46269 6.42505 7.43144 6.5938 6.45644 6.80005C6.34394 6.3688 6.26895 5.9563 6.19394 5.56255ZM1.5627 11C1.5627 10.1188 2.63145 9.1813 4.50645 8.48755C4.88145 8.33755 5.29394 8.2063 5.70645 8.0938C6.00644 9.0313 6.38144 10.025 6.83144 11.0188C6.38144 12.0125 5.9877 12.9875 5.70645 13.925C3.11895 13.175 1.5627 12.05 1.5627 11ZM6.90644 20.2438C6.13769 19.7938 5.8752 18.4063 6.19394 16.4376C6.2502 16.0438 6.34394 15.6313 6.45644 15.2001C7.43144 15.4251 8.46269 15.5751 9.55019 15.6688C10.1877 16.5688 10.8439 17.3751 11.5002 18.1063C10.1127 19.4751 8.70644 20.4125 7.56269 20.4125C7.31894 20.4125 7.09394 20.3563 6.90644 20.2438ZM18.3064 16.4376C18.6252 18.4063 18.3627 19.7938 17.5939 20.2438C17.4064 20.3563 17.1814 20.4125 16.9377 20.4125C15.8127 20.4125 14.4064 19.4938 13.0002 18.1063C13.6564 17.3938 14.3127 16.5688 14.9502 15.6688C16.0377 15.5751 17.0689 15.4063 18.0439 15.2001C18.1564 15.6313 18.2314 16.0438 18.3064 16.4376ZM19.9939 13.5126C19.6189 13.6625 19.2064 13.7938 18.7939 13.9063C18.4939 12.9688 18.1189 11.975 17.6689 10.9813C18.1189 9.98755 18.5127 9.01255 18.7939 8.07505C21.3814 8.82505 22.9377 9.95005 22.9377 11C22.9377 11.8813 21.8502 12.8188 19.9939 13.5126Z" fill="#22D3EE"/>
</svg>
