<svg width="25" height="16" viewBox="0 0 25 16" fill="none" xmlns="http://www.w3.org/2000/svg">
<path d="M12.251 0.800415C9.05091 0.800415 7.0516 2.39979 6.25098 5.59985C7.4506 4.00029 8.85104 3.40048 10.4506 3.80042C11.3639 4.02804 12.0166 4.69029 12.7394 5.42417C13.9158 6.61798 15.2774 8.00004 18.251 8.00004C21.4509 8.00004 23.4504 6.40048 24.251 3.19967C23.0512 4.80016 21.6509 5.39998 20.0512 5.00004C19.138 4.77223 18.4861 4.11017 17.7624 3.37629C16.5867 2.18248 15.2255 0.800415 12.251 0.800415ZM6.25098 8.00004C3.0511 8.00004 1.0516 9.5996 0.250977 12.8004C1.4506 11.1999 2.85085 10.6001 4.4506 11C5.36391 11.2279 6.0166 11.8899 6.73941 12.6238C7.91579 13.8176 9.27741 15.1997 12.251 15.1997C15.4509 15.1997 17.4504 13.6003 18.251 10.4002C17.0512 11.9998 15.6509 12.5996 14.0512 12.1997C13.138 11.972 12.4861 11.3098 11.7624 10.5759C10.5867 9.3821 9.22548 8.00004 6.25098 8.00004Z" fill="#22D3EE"/>
</svg>
