<svg width="25" height="24" viewBox="0 0 25 24" fill="none" xmlns="http://www.w3.org/2000/svg">
<path d="M0.821429 0C0.669881 1.51525e-05 0.524545 0.0602239 0.417384 0.167384C0.310224 0.274545 0.250015 0.419881 0.25 0.571429V23.4286C0.250015 23.5801 0.310224 23.7255 0.417384 23.8326C0.524545 23.9398 0.669881 24 0.821429 24H23.6786C23.8301 24 23.9755 23.9398 24.0826 23.8326C24.1898 23.7255 24.25 23.5801 24.25 23.4286V0.571429C24.25 0.419881 24.1898 0.274545 24.0826 0.167384C23.9755 0.0602239 23.8301 1.51525e-05 23.6786 0H0.821429ZM1.39286 1.14286H23.1071V22.8571H1.39286V1.14286ZM6.53571 10.8571V12.8259H9.39286V21.7143H11.6786V12.8259H14.5357V10.8571H6.53571ZM18.9308 10.8627C17.151 10.8556 15.1172 11.395 15.1172 13.8996C15.1172 17.1738 19.529 17.1746 19.529 18.6518C19.529 18.7918 19.5884 19.8092 18.0312 19.8092C16.4741 19.8092 15.1763 18.8304 15.1763 18.8304V21.2065C15.1763 21.2065 21.9654 23.4023 21.9654 18.4509C21.9648 15.2366 17.5123 15.3974 17.5123 13.8002C17.5123 13.1814 17.9519 12.6027 19.1696 12.6027C20.3874 12.6027 21.4654 13.3214 21.4654 13.3214L21.5458 11.2042C21.5458 11.2042 20.3151 10.8682 18.9308 10.8627Z" fill="#22D3EE"/>
</svg>
