<svg width="2360" height="1192" viewBox="0 0 2360 1192" fill="none" xmlns="http://www.w3.org/2000/svg">
<g clip-path="url(#clip0_211_802)">
<rect width="2360" height="1192" rx="16" fill="#050505"/>
<g opacity="0.5">
<g filter="url(#filter0_f_211_802)">
<ellipse cx="1437.89" cy="609.77" rx="249.663" ry="379.598" transform="rotate(-111.286 1437.89 609.77)" fill="#6AA3FF"/>
</g>
<mask id="mask0_211_802" style="mask-type:alpha" maskUnits="userSpaceOnUse" x="777" y="-279" width="1305" height="1500">
<path d="M2081.6 24.2395L1265.11 -278.241L829.835 440.423L777.526 671.396L1155.37 1162.67L1540.19 1220.55L1854.85 583.74L2081.6 24.2395Z" fill="url(#paint0_linear_211_802)"/>
</mask>
<g mask="url(#mask0_211_802)">
<mask id="mask1_211_802" style="mask-type:alpha" maskUnits="userSpaceOnUse" x="686" y="-317" width="1404" height="1588">
<path d="M1496.79 1270.17C1137.35 1091.96 704.585 826.147 686.099 818.457L1252.79 -316.296L2089.49 18.1999L1496.79 1270.17Z" fill="url(#paint1_linear_211_802)"/>
</mask>
<g mask="url(#mask1_211_802)">
<path d="M1034.43 470.26C1095.98 345.703 1276.54 304.629 1392.02 361.693C1507.51 418.756 1634.14 544.063 1568.11 677.701C1535.39 743.926 1572.85 862.48 1476.47 912.744C1378.35 963.911 1229.84 867.871 1171.59 839.085C1056.1 782.022 972.883 594.816 1034.43 470.26Z" fill="#5185D9"/>
<g filter="url(#filter1_f_211_802)">
<path d="M1043.58 476.639C1109.59 343.055 1256.84 296.867 1346.5 341.17C1436.15 385.472 1528.91 494.011 1462.9 627.595C1430.19 693.793 1452.74 804.936 1369.24 861.522C1284.23 919.126 1170.94 840.498 1125.71 818.15C1036.05 773.848 977.577 610.223 1043.58 476.639Z" fill="#5185D9"/>
</g>
<g filter="url(#filter2_f_211_802)">
<path d="M1045.58 472.596C1119.56 322.874 1296 276.739 1406.71 331.443C1517.41 386.147 1634.79 514.425 1560.81 664.147C1524.15 738.341 1566.83 871.514 1468.14 932.422C1367.68 994.424 1217.41 894.784 1161.56 867.188C1050.85 812.485 971.601 622.317 1045.58 472.596Z" fill="#2666CF"/>
</g>
<g filter="url(#filter3_f_211_802)">
<path d="M1090.31 473.125C1211.67 303.106 1446.06 228.421 1589.3 299.196C1732.53 369.972 1841.01 540.306 1752.29 719.868C1708.32 808.849 1807.91 1000.37 1684.34 1070.85C1558.56 1142.59 1302.22 1002.66 1229.97 966.956C1086.73 896.181 949.722 670.083 1090.31 473.125Z" fill="#5185D9"/>
</g>
<g filter="url(#filter4_f_211_802)">
<path d="M1150.54 442.644C1246.07 249.303 1519.68 160.236 1659.72 229.433C1799.77 298.631 1901.24 474.459 1805.71 667.8C1758.36 763.61 1754.33 906.349 1628.34 985.721C1500.1 1066.52 1181.8 979.542 1111.16 944.635C971.117 875.437 1055 635.985 1150.54 442.644Z" fill="#5185D9"/>
</g>
<g filter="url(#filter5_f_211_802)">
<path d="M1250.44 381.207C1349.17 181.407 1622.91 102.667 1766.15 173.443C1909.38 244.218 2012.64 425.127 1913.91 624.927C1864.99 723.938 1598.16 776.023 1468.71 858.412C1336.93 942.28 1155.03 818.523 1082.78 782.82C939.545 712.045 1151.72 581.007 1250.44 381.207Z" fill="#9BB9E9"/>
</g>
<g filter="url(#filter6_f_211_802)">
<path d="M1153.41 520.23C1239.79 345.405 1502.91 288.166 1646.15 358.941C1789.38 429.717 1899.09 597.576 1812.7 772.401C1769.9 859.035 1756.02 983.052 1633.83 1050.74C1509.45 1119.64 1325.87 999.283 1253.62 963.58C1110.38 892.805 1067.02 695.055 1153.41 520.23Z" fill="#5185D9"/>
</g>
</g>
</g>
<mask id="mask2_211_802" style="mask-type:alpha" maskUnits="userSpaceOnUse" x="1017" y="37" width="1576" height="1098">
<path d="M1017.22 963.854C1064.11 565.415 1124 57.1481 1124.76 37.1221L2592.39 207.425L2484.85 1134.16L1017.22 963.854Z" fill="url(#paint2_linear_211_802)"/>
</mask>
<g mask="url(#mask2_211_802)">
<path d="M1789.25 279.082C1954.78 298.29 2077.39 457.164 2062.54 585.119C2047.7 713.074 1961.2 873.216 1783.61 852.608C1695.6 842.395 1578.81 915.53 1481.64 839.678C1382.73 762.463 1427.18 590.757 1434.67 526.209C1449.52 398.254 1623.72 259.874 1789.25 279.082Z" fill="#BCD0F0"/>
<g filter="url(#filter7_f_211_802)">
<path d="M1785.99 289.811C1963.52 310.411 2076.34 447.835 2063.57 557.821C2050.81 667.807 1967.08 804.371 1789.56 783.771C1701.58 773.563 1585.9 837.551 1487.74 770.652C1387.81 702.551 1429.41 555.351 1435.85 499.869C1448.61 389.883 1608.47 269.211 1785.99 289.811Z" fill="#BCD0F0"/>
</g>
<g filter="url(#filter8_f_211_802)">
<path d="M1791.37 290.436C1990.35 313.525 2115.19 481.3 2099.46 616.899C2083.72 752.498 1988 921.736 1789.03 898.648C1690.43 887.206 1558.32 980.117 1449.01 898.998C1337.74 816.422 1387.64 623.158 1395.58 554.755C1411.31 419.156 1592.4 267.348 1791.37 290.436Z" fill="#BCD0F0"/>
</g>
<g filter="url(#filter9_f_211_802)">
<path d="M1812.47 309.161C2054.27 370.928 2237.35 570.413 2218.93 729.114C2200.52 887.815 2055.93 1044.91 1817.3 1017.22C1699.05 1003.5 1526.96 1158.83 1395.64 1063.49C1261.96 966.449 1319.59 753.774 1328.88 673.717C1347.3 515.015 1532.36 237.606 1812.47 309.161Z" fill="#BCD0F0"/>
</g>
<g filter="url(#filter10_f_211_802)">
<path d="M1887.79 382.992C2144.73 412.807 2342.2 642.946 2324.19 798.109C2306.19 953.272 2152.47 1105.43 1895.53 1075.62C1768.21 1060.84 1606.74 1102.12 1464.43 1007.3C1319.56 910.773 1379.14 703.213 1388.22 624.941C1406.22 469.777 1630.85 353.177 1887.79 382.992Z" fill="#BCD0F0"/>
</g>
<g filter="url(#filter11_f_211_802)">
<path d="M1980.6 456.531C2246.13 487.343 2450.45 723.001 2432.03 881.703C2413.61 1040.4 2254.97 1195.87 1989.44 1165.06C1857.87 1149.79 1691.07 1191.82 1543.92 1094.65C1394.12 995.731 1455.42 783.481 1464.71 703.424C1483.12 544.723 1715.08 425.72 1980.6 456.531Z" fill="#2666CF"/>
</g>
<g filter="url(#filter12_f_211_802)">
<path d="M1783.82 408.12C2016.16 435.08 2191.9 667.423 2173.49 826.124C2155.07 984.825 2013.77 1142.3 1781.43 1115.34C1666.3 1101.98 1521.61 1127.98 1393.99 1033.07C1264.09 936.467 1320.86 723.692 1330.15 643.635C1348.57 484.934 1551.49 381.16 1783.82 408.12Z" fill="#5185D9"/>
</g>
</g>
<mask id="mask3_211_802" style="mask-type:alpha" maskUnits="userSpaceOnUse" x="1125" y="57" width="1025" height="1397">
<path d="M1125.69 163.124C1533.83 114.564 1979.32 61.7312 1999.49 57.9683L2149.29 1348.77L1275.5 1453.92L1125.69 163.124Z" fill="url(#paint3_linear_211_802)"/>
</mask>
<g mask="url(#mask3_211_802)">
<path d="M1959.03 630.753C1969.92 721.217 1885.52 808.535 1801.64 818.629C1717.77 828.723 1603.29 805.349 1591.61 708.289C1585.82 660.191 1522.73 608.539 1557.62 546.368C1593.13 483.08 1709.12 482.541 1751.43 477.449C1835.31 467.355 1948.15 540.289 1959.03 630.753Z" fill="#5185D9"/>
<g filter="url(#filter13_f_211_802)">
<path d="M1951.72 630.534C1963.39 727.554 1899.12 805.73 1834 813.567C1768.88 821.403 1679.02 795.082 1667.35 698.062C1661.56 649.983 1609.31 597.05 1634.86 536.026C1660.88 473.907 1751.28 476.44 1784.13 472.487C1849.25 464.651 1940.04 533.514 1951.72 630.534Z" fill="#5185D9"/>
</g>
<g filter="url(#filter14_f_211_802)">
<path d="M1952.07 633.471C1965.16 742.212 1884.84 830.828 1804.43 840.505C1724.02 850.181 1613.57 821.852 1600.48 713.111C1594 659.225 1522.79 601.418 1555.13 532.578C1588.04 462.501 1706.29 463.305 1746.85 458.423C1827.26 448.747 1938.99 524.73 1952.07 633.471Z" fill="#5185D9"/>
</g>
<g filter="url(#filter15_f_211_802)">
<path d="M1927.32 649.224C1921.68 786.104 1819.78 911.185 1715.75 923.704C1611.72 936.223 1491.06 881.615 1475.36 751.202C1467.59 686.576 1344.21 617.143 1386.77 534.128C1430.1 449.621 1621.03 434.499 1673.51 428.184C1777.54 415.665 1933.86 490.657 1927.32 649.224Z" fill="#5185D9"/>
</g>
<g filter="url(#filter16_f_211_802)">
<path d="M1905.19 687.563C1922.09 827.984 1803.81 975.03 1702.1 987.27C1600.39 999.51 1481.61 939.371 1464.71 798.95C1456.34 729.365 1407.35 649.547 1448.05 560.778C1489.48 470.415 1695.44 403.997 1746.75 397.822C1848.46 385.582 1888.29 547.142 1905.19 687.563Z" fill="#5185D9"/>
</g>
<g filter="url(#filter17_f_211_802)">
<path d="M1872.38 757.13C1889.84 902.242 1767.79 1043.67 1663.76 1056.18C1559.73 1068.7 1438.14 1006.42 1420.68 861.303C1412.02 789.393 1539.84 665.086 1581.36 573.417C1623.63 480.101 1767.89 482.802 1820.37 476.487C1924.4 463.967 1854.91 612.019 1872.38 757.13Z" fill="#2666CF"/>
</g>
<g filter="url(#filter18_f_211_802)">
<path d="M1875.78 645.995C1891.06 772.968 1767.13 898.775 1663.1 911.294C1559.07 923.813 1438.63 871.003 1423.35 744.03C1415.78 681.109 1378.91 608.041 1421.72 527.051C1465.29 444.606 1609.26 444.835 1661.74 438.52C1765.77 426 1860.5 519.022 1875.78 645.995Z" fill="#5185D9"/>
</g>
</g>
</g>
<rect x="314" y="397.5" width="44" height="44" rx="22" fill="#2666CF"/>
<rect x="325" y="425.384" width="5.11628" height="5.11628" fill="white"/>
<path d="M333.442 421.291L338.558 417.198V423.977V430.5H333.442V421.291Z" fill="white"/>
<path d="M341.884 412.849L347 408.5V430.5H341.884V412.849Z" fill="white"/>
<path d="M325 417.198H332.382H338.558L333.826 422.314H325V417.198Z" fill="white"/>
<path d="M325 408.5H347L341.884 413.616H325V408.5Z" fill="white"/>
<path d="M371.712 403.9C371.872 403.9 372.032 403.932 372.192 403.996C372.352 404.06 372.496 404.172 372.624 404.332L386.4 424.828H385.44L399.216 404.332C399.472 403.98 399.776 403.836 400.128 403.9C400.384 403.932 400.592 404.044 400.752 404.236C400.912 404.396 400.992 404.604 400.992 404.86V436.54C400.992 436.796 400.88 437.02 400.656 437.212C400.464 437.404 400.24 437.5 399.984 437.5C399.696 437.5 399.456 437.404 399.264 437.212C399.072 437.02 398.976 436.796 398.976 436.54V407.02H399.504L386.592 426.556C386.528 426.684 386.432 426.78 386.304 426.844C386.208 426.908 386.08 426.94 385.92 426.94C385.76 426.94 385.6 426.908 385.44 426.844C385.312 426.78 385.216 426.684 385.152 426.556L371.952 406.636H372.72V436.54C372.72 436.796 372.624 437.02 372.432 437.212C372.24 437.404 372.016 437.5 371.76 437.5C371.472 437.5 371.232 437.404 371.04 437.212C370.88 437.02 370.8 436.796 370.8 436.54V404.86C370.8 404.636 370.88 404.428 371.04 404.236C371.2 404.012 371.424 403.9 371.712 403.9ZM427.829 412.78C428.117 412.78 428.341 412.876 428.501 413.068C428.693 413.26 428.789 413.484 428.789 413.74V435.148C428.789 437.612 428.293 439.74 427.301 441.532C426.309 443.324 424.965 444.7 423.269 445.66C421.573 446.62 419.637 447.1 417.461 447.1C415.989 447.1 414.661 446.924 413.477 446.572C412.325 446.22 411.381 445.788 410.645 445.276C410.421 445.116 410.245 444.924 410.117 444.7C409.989 444.476 409.989 444.236 410.117 443.98C410.245 443.724 410.421 443.548 410.645 443.452C410.901 443.356 411.141 443.388 411.365 443.548C411.909 443.868 412.725 444.252 413.813 444.7C414.933 445.148 416.181 445.372 417.557 445.372C419.413 445.372 421.029 444.94 422.405 444.076C423.813 443.212 424.901 442.012 425.669 440.476C426.469 438.94 426.869 437.164 426.869 435.148V431.596L426.965 432.796C426.517 433.756 425.829 434.636 424.901 435.436C424.005 436.204 422.981 436.828 421.829 437.308C420.709 437.756 419.541 437.98 418.325 437.98C416.341 437.98 414.709 437.596 413.429 436.828C412.181 436.028 411.253 434.94 410.645 433.564C410.069 432.188 409.781 430.572 409.781 428.716V413.74C409.781 413.484 409.861 413.26 410.021 413.068C410.213 412.876 410.453 412.78 410.741 412.78C411.029 412.78 411.253 412.876 411.413 413.068C411.605 413.26 411.701 413.484 411.701 413.74V428.716C411.701 430.988 412.197 432.796 413.189 434.14C414.213 435.484 415.925 436.156 418.325 436.156C419.765 436.156 421.125 435.804 422.405 435.1C423.717 434.364 424.789 433.42 425.621 432.268C426.453 431.116 426.869 429.932 426.869 428.716V413.74C426.869 413.484 426.949 413.26 427.109 413.068C427.301 412.876 427.541 412.78 427.829 412.78ZM460.494 405.82C461.198 406.172 461.598 406.716 461.694 407.452C461.822 408.188 461.646 408.86 461.166 409.468C460.814 409.948 460.35 410.22 459.774 410.284C459.23 410.348 458.686 410.236 458.142 409.948C457.214 409.468 456.238 409.084 455.214 408.796C454.19 408.508 453.102 408.364 451.95 408.364C450.126 408.364 448.478 408.668 447.006 409.276C445.566 409.852 444.318 410.7 443.262 411.82C442.206 412.908 441.39 414.204 440.814 415.708C440.27 417.212 439.998 418.876 439.998 420.7C439.998 422.716 440.302 424.508 440.91 426.076C441.518 427.612 442.35 428.924 443.406 430.012C444.494 431.068 445.758 431.868 447.198 432.412C448.67 432.924 450.254 433.18 451.95 433.18C453.038 433.18 454.094 433.052 455.118 432.796C456.174 432.54 457.166 432.156 458.094 431.644C458.67 431.356 459.23 431.26 459.774 431.356C460.35 431.42 460.814 431.692 461.166 432.172C461.71 432.844 461.902 433.532 461.742 434.236C461.614 434.908 461.214 435.42 460.542 435.772C459.742 436.22 458.862 436.604 457.902 436.924C456.942 437.244 455.966 437.5 454.974 437.692C453.982 437.884 452.974 437.98 451.95 437.98C449.646 437.98 447.47 437.596 445.422 436.828C443.374 436.06 441.55 434.94 439.95 433.468C438.35 431.996 437.086 430.188 436.158 428.044C435.262 425.9 434.814 423.452 434.814 420.7C434.814 418.236 435.23 415.964 436.062 413.884C436.926 411.772 438.126 409.964 439.662 408.46C441.23 406.924 443.054 405.74 445.134 404.908C447.214 404.044 449.486 403.612 451.95 403.612C453.486 403.612 454.974 403.804 456.414 404.188C457.886 404.572 459.246 405.116 460.494 405.82ZM489.714 411.868C490.418 411.868 490.994 412.108 491.442 412.588C491.89 413.036 492.114 413.612 492.114 414.316V435.052C492.114 435.756 491.89 436.348 491.442 436.828C490.994 437.276 490.418 437.5 489.714 437.5C489.042 437.5 488.466 437.276 487.986 436.828C487.538 436.348 487.314 435.756 487.314 435.052V431.596L488.322 431.74C488.322 432.316 488.082 432.956 487.602 433.66C487.154 434.364 486.53 435.052 485.73 435.724C484.93 436.364 483.986 436.908 482.898 437.356C481.81 437.772 480.642 437.98 479.394 437.98C477.186 437.98 475.202 437.42 473.442 436.3C471.682 435.148 470.29 433.58 469.266 431.596C468.242 429.612 467.73 427.356 467.73 424.828C467.73 422.236 468.242 419.964 469.266 418.012C470.29 416.028 471.666 414.476 473.394 413.356C475.154 412.236 477.106 411.676 479.25 411.676C480.626 411.676 481.89 411.9 483.042 412.348C484.226 412.796 485.25 413.372 486.114 414.076C486.978 414.78 487.634 415.532 488.082 416.332C488.562 417.1 488.802 417.836 488.802 418.54L487.314 418.684V414.316C487.314 413.644 487.538 413.068 487.986 412.588C488.466 412.108 489.042 411.868 489.714 411.868ZM479.922 433.564C481.426 433.564 482.754 433.18 483.906 432.412C485.058 431.644 485.954 430.604 486.594 429.292C487.234 427.948 487.554 426.46 487.554 424.828C487.554 423.164 487.234 421.676 486.594 420.364C485.954 419.052 485.058 418.012 483.906 417.244C482.754 416.476 481.426 416.092 479.922 416.092C478.45 416.092 477.138 416.476 475.986 417.244C474.866 418.012 473.97 419.052 473.298 420.364C472.658 421.676 472.338 423.164 472.338 424.828C472.338 426.46 472.658 427.948 473.298 429.292C473.97 430.604 474.866 431.644 475.986 432.412C477.138 433.18 478.45 433.564 479.922 433.564ZM499.75 433.564C499.462 433.116 499.334 432.604 499.366 432.028C499.398 431.42 499.734 430.908 500.374 430.492C500.822 430.204 501.286 430.092 501.766 430.156C502.278 430.188 502.758 430.428 503.206 430.876C504.102 431.868 505.094 432.652 506.182 433.228C507.302 433.804 508.646 434.092 510.214 434.092C510.854 434.06 511.51 433.964 512.182 433.804C512.854 433.612 513.43 433.292 513.91 432.844C514.39 432.364 514.63 431.676 514.63 430.78C514.63 429.98 514.374 429.34 513.862 428.86C513.35 428.38 512.678 427.996 511.846 427.708C511.014 427.388 510.118 427.1 509.158 426.844C508.134 426.556 507.094 426.236 506.038 425.884C505.014 425.532 504.086 425.084 503.254 424.54C502.422 423.964 501.734 423.228 501.19 422.332C500.678 421.436 500.422 420.332 500.422 419.02C500.422 417.516 500.838 416.22 501.67 415.132C502.534 414.044 503.638 413.196 504.982 412.588C506.358 411.98 507.846 411.676 509.446 411.676C510.374 411.676 511.35 411.804 512.374 412.06C513.398 412.284 514.39 412.652 515.35 413.164C516.31 413.676 517.142 414.348 517.846 415.18C518.166 415.596 518.342 416.092 518.374 416.668C518.438 417.244 518.182 417.756 517.606 418.204C517.222 418.524 516.758 418.668 516.214 418.636C515.67 418.604 515.222 418.428 514.87 418.108C514.262 417.34 513.478 416.748 512.518 416.332C511.558 415.884 510.47 415.66 509.254 415.66C508.646 415.66 508.006 415.756 507.334 415.948C506.694 416.108 506.15 416.412 505.702 416.86C505.254 417.308 505.03 417.964 505.03 418.828C505.03 419.628 505.286 420.268 505.798 420.748C506.342 421.228 507.046 421.628 507.91 421.948C508.774 422.268 509.718 422.556 510.742 422.812C511.734 423.068 512.71 423.372 513.67 423.724C514.662 424.076 515.542 424.54 516.31 425.116C517.11 425.66 517.75 426.38 518.23 427.276C518.742 428.14 518.998 429.244 518.998 430.588C518.998 432.156 518.534 433.5 517.606 434.62C516.71 435.708 515.558 436.54 514.15 437.116C512.774 437.692 511.318 437.98 509.782 437.98C507.958 437.98 506.134 437.66 504.31 437.02C502.518 436.348 500.998 435.196 499.75 433.564ZM539.28 411.82C541.488 411.82 543.2 412.3 544.416 413.26C545.632 414.188 546.48 415.452 546.96 417.052C547.472 418.652 547.728 420.412 547.728 422.332V435.052C547.728 435.756 547.488 436.348 547.008 436.828C546.56 437.276 546 437.5 545.328 437.5C544.624 437.5 544.048 437.276 543.6 436.828C543.152 436.348 542.928 435.756 542.928 435.052V422.332C542.928 421.212 542.768 420.188 542.448 419.26C542.16 418.332 541.632 417.596 540.864 417.052C540.128 416.508 539.088 416.236 537.744 416.236C536.496 416.236 535.376 416.508 534.384 417.052C533.424 417.596 532.672 418.332 532.128 419.26C531.616 420.188 531.36 421.212 531.36 422.332V435.052C531.36 435.756 531.12 436.348 530.64 436.828C530.192 437.276 529.632 437.5 528.96 437.5C528.256 437.5 527.68 437.276 527.232 436.828C526.784 436.348 526.56 435.756 526.56 435.052V404.428C526.56 403.724 526.784 403.148 527.232 402.7C527.68 402.22 528.256 401.98 528.96 401.98C529.632 401.98 530.192 402.22 530.64 402.7C531.12 403.148 531.36 403.724 531.36 404.428V417.532L530.496 418.012C530.72 417.308 531.088 416.588 531.6 415.852C532.144 415.116 532.8 414.444 533.568 413.836C534.368 413.228 535.248 412.748 536.208 412.396C537.168 412.012 538.192 411.82 539.28 411.82ZM561.988 435.052C561.988 435.756 561.748 436.348 561.268 436.828C560.82 437.276 560.26 437.5 559.588 437.5C558.916 437.5 558.34 437.276 557.86 436.828C557.412 436.348 557.188 435.756 557.188 435.052V404.428C557.188 403.724 557.428 403.148 557.908 402.7C558.388 402.22 558.964 401.98 559.636 401.98C560.34 401.98 560.9 402.22 561.316 402.7C561.764 403.148 561.988 403.724 561.988 404.428V435.052ZM589.597 412.06C590.301 412.06 590.877 412.3 591.325 412.78C591.773 413.228 591.997 413.804 591.997 414.508V435.148C591.997 437.964 591.453 440.252 590.365 442.012C589.309 443.772 587.869 445.052 586.045 445.852C584.253 446.684 582.221 447.1 579.949 447.1C578.797 447.1 577.645 446.988 576.493 446.764C575.341 446.572 574.397 446.284 573.661 445.9C572.893 445.548 572.349 445.116 572.029 444.604C571.709 444.092 571.661 443.532 571.885 442.924C572.109 442.156 572.493 441.628 573.037 441.34C573.581 441.084 574.141 441.068 574.717 441.292C575.261 441.516 575.981 441.804 576.877 442.156C577.773 442.508 578.797 442.684 579.949 442.684C581.517 442.684 582.845 442.428 583.933 441.916C585.021 441.404 585.837 440.604 586.381 439.516C586.957 438.428 587.245 437.02 587.245 435.292V431.98L588.013 433.132C587.501 434.188 586.829 435.068 585.997 435.772C585.165 436.476 584.173 437.02 583.021 437.404C581.901 437.788 580.653 437.98 579.277 437.98C577.517 437.98 575.997 437.596 574.717 436.828C573.469 436.028 572.509 434.94 571.837 433.564C571.165 432.156 570.829 430.556 570.829 428.764V414.508C570.829 413.804 571.053 413.228 571.501 412.78C571.949 412.3 572.525 412.06 573.229 412.06C573.901 412.06 574.461 412.3 574.909 412.78C575.389 413.228 575.629 413.804 575.629 414.508V427.468C575.629 429.58 576.093 431.132 577.021 432.124C577.949 433.084 579.325 433.564 581.149 433.564C582.365 433.564 583.421 433.308 584.317 432.796C585.213 432.284 585.917 431.58 586.429 430.684C586.941 429.756 587.197 428.684 587.197 427.468V414.508C587.197 413.804 587.421 413.228 587.869 412.78C588.349 412.3 588.925 412.06 589.597 412.06ZM602.943 437.452C602.143 437.452 601.519 437.228 601.071 436.78C600.655 436.332 600.447 435.708 600.447 434.908V434.044C600.447 433.244 600.655 432.62 601.071 432.172C601.519 431.724 602.143 431.5 602.943 431.5H603.471C604.271 431.5 604.879 431.724 605.295 432.172C605.711 432.62 605.919 433.244 605.919 434.044V434.908C605.919 435.708 605.711 436.332 605.295 436.78C604.879 437.228 604.271 437.452 603.471 437.452H602.943Z" fill="white"/>
<path d="M352.772 551.688C330.956 551.688 318.968 537.864 318.968 513.348C318.968 488.616 331.064 474.792 352.772 474.792C371.456 474.792 383.012 484.944 384.308 503.304H367.244C365.84 493.692 360.764 488.508 352.556 488.508C341.972 488.508 336.032 496.932 336.032 513.348C336.032 529.656 341.972 537.972 352.556 537.972C360.764 537.972 365.948 532.68 367.352 523.176H384.308C382.904 541.428 371.78 551.688 352.772 551.688ZM419.419 551.58C401.923 551.58 391.987 540.996 391.987 523.068C391.987 505.032 401.923 494.448 419.419 494.448C436.915 494.448 446.743 505.032 446.743 523.068C446.743 540.996 437.023 551.58 419.419 551.58ZM407.215 523.068C407.215 533.976 411.535 540.132 419.419 540.132C427.519 540.132 431.515 533.868 431.515 523.068C431.515 512.052 427.519 505.896 419.419 505.896C411.427 505.896 407.215 511.944 407.215 523.068ZM455.464 550.5V495.636H467.344V499.848L466.264 505.032H467.56C470.368 499.524 476.524 494.448 487.324 494.448C499.852 494.448 506.656 501.36 506.656 513.24V550.5H491.428V516.48C491.428 509.892 488.296 506.436 482.248 506.436C475.336 506.436 470.692 510.864 470.692 518.532V550.5H455.464ZM540.666 551.58C528.354 551.58 521.874 545.424 521.874 533.652V527.172V506.004H513.018V495.636H521.874V480.948H537.21V495.636H552.114V506.004H537.21V526.2V531.06C537.21 536.568 540.018 539.16 545.742 539.16C548.226 539.16 550.494 538.728 552.438 538.296V550.176C549.414 550.932 545.31 551.58 540.666 551.58ZM561.042 550.5V495.636H573.03V499.74L571.842 506.436H573.246C575.298 499.74 580.914 494.448 589.986 494.448C592.686 494.448 595.386 494.88 597.33 495.744V510C595.17 509.352 592.686 508.812 590.094 508.812C581.562 508.812 576.27 514.536 576.27 524.256V550.5H561.042ZM628.993 551.58C611.497 551.58 601.561 540.996 601.561 523.068C601.561 505.032 611.497 494.448 628.993 494.448C646.489 494.448 656.317 505.032 656.317 523.068C656.317 540.996 646.597 551.58 628.993 551.58ZM616.789 523.068C616.789 533.976 621.109 540.132 628.993 540.132C637.093 540.132 641.089 533.868 641.089 523.068C641.089 512.052 637.093 505.896 628.993 505.896C621.001 505.896 616.789 511.944 616.789 523.068ZM666.01 550.5V472.74H681.238V550.5H666.01ZM717.254 551.58C699.974 551.58 690.686 541.212 690.686 523.392C690.686 505.14 700.946 494.448 718.118 494.448C734.75 494.448 743.498 504.276 743.498 522.204V525.552H706.238C706.778 535.704 710.666 540.456 718.01 540.456C724.166 540.456 727.514 537.432 728.702 532.572H743.282C741.662 543.912 732.698 551.58 717.254 551.58ZM706.562 516.696H728.378C727.406 508.704 723.95 504.816 717.686 504.816C711.422 504.816 707.75 508.596 706.562 516.696ZM798.272 551.58C784.232 551.58 775.592 541.104 775.592 523.068C775.592 504.924 784.34 494.448 798.38 494.448C808.424 494.448 814.472 499.524 817.28 505.248H818.576L817.496 500.712L814.148 496.392V472.74H829.484V550.5H817.496V546.072L818.576 540.888H817.172C814.472 546.504 808.424 551.58 798.272 551.58ZM791.252 522.96C791.252 533.868 795.248 540.024 802.916 540.024C810.26 540.024 814.472 534.084 814.472 522.96C814.472 511.728 810.152 506.004 802.916 506.004C795.248 506.004 791.252 512.16 791.252 522.96ZM864.231 551.58C846.951 551.58 837.663 541.212 837.663 523.392C837.663 505.14 847.923 494.448 865.095 494.448C881.727 494.448 890.475 504.276 890.475 522.204V525.552H853.215C853.755 535.704 857.643 540.456 864.987 540.456C871.143 540.456 874.491 537.432 875.679 532.572H890.259C888.639 543.912 879.675 551.58 864.231 551.58ZM853.539 516.696H875.355C874.383 508.704 870.927 504.816 864.663 504.816C858.399 504.816 854.727 508.596 853.539 516.696ZM321.128 649.5V574.98H371.78V588.696H337.328V610.08H367.136V623.04H337.436V649.5H321.128ZM380.119 649.5V594.636H395.455V649.5H380.119ZM379.687 586.428V571.74H395.671V586.428H379.687ZM406.21 649.5V594.636H418.09V598.848L417.01 604.032H418.306C421.114 598.524 427.27 593.448 438.07 593.448C450.598 593.448 457.402 600.36 457.402 612.24V649.5H442.174V615.48C442.174 608.892 439.042 605.436 432.994 605.436C426.082 605.436 421.438 609.864 421.438 617.532V649.5H406.21ZM484.176 650.58C471.864 650.58 465.276 644.532 465.276 635.352C465.276 626.064 470.892 620.232 485.688 618.504L501.456 616.668V613.86C501.456 607.38 497.892 603.924 491.304 603.924C484.716 603.924 481.26 607.272 481.152 613.32H466.356C466.464 600.36 475.752 593.448 491.628 593.448C508.584 593.448 516.684 600.792 516.684 614.508V649.5H504.804V645.18L505.992 639.996H504.372C501.672 645.396 495.516 650.58 484.176 650.58ZM480.288 633.732C480.288 637.944 483.204 640.212 488.28 640.212C495.84 640.212 501.456 635.568 501.456 628.44V625.524L488.604 626.928C482.556 627.684 480.288 630.06 480.288 633.732ZM526.659 649.5V594.636H538.539V598.848L537.459 604.032H538.755C541.563 598.524 547.719 593.448 558.519 593.448C571.047 593.448 577.851 600.36 577.851 612.24V649.5H562.623V615.48C562.623 608.892 559.491 605.436 553.443 605.436C546.531 605.436 541.887 609.864 541.887 617.532V649.5H526.659ZM612.078 674.664C607.866 674.664 603.87 674.016 601.386 673.26V666.888C603.978 667.86 608.082 668.508 611.43 668.508C616.506 668.508 618.882 666.996 618.882 664.512C618.882 662.46 617.046 661.38 612.834 661.38H603.87V659.544L610.242 650.472C594.906 649.068 586.374 638.7 586.374 622.068C586.374 604.032 596.418 593.556 614.238 593.556C629.574 593.556 639.618 601.332 640.59 614.94H625.038C623.85 608.244 620.178 604.68 614.022 604.68C606.03 604.68 601.926 610.62 601.926 622.068C601.926 633.408 606.03 639.348 614.022 639.348C620.07 639.348 623.742 635.784 625.038 629.196H640.59C639.726 641.616 631.302 649.5 617.586 650.58L613.806 655.656H615.534C623.742 655.656 627.738 659.004 627.738 664.296C627.738 670.884 621.69 674.664 612.078 674.664ZM665.219 650.58C652.907 650.58 646.319 644.532 646.319 635.352C646.319 626.064 651.935 620.232 666.731 618.504L682.499 616.668V613.86C682.499 607.38 678.935 603.924 672.347 603.924C665.759 603.924 662.303 607.272 662.195 613.32H647.399C647.507 600.36 656.795 593.448 672.671 593.448C689.627 593.448 697.727 600.792 697.727 614.508V649.5H685.847V645.18L687.035 639.996H685.415C682.715 645.396 676.559 650.58 665.219 650.58ZM661.331 633.732C661.331 637.944 664.247 640.212 669.323 640.212C676.883 640.212 682.499 635.568 682.499 628.44V625.524L669.647 626.928C663.599 627.684 661.331 630.06 661.331 633.732ZM730.49 650.58C714.83 650.58 706.73 644.964 705.542 633.3H719.906C720.878 638.052 724.55 640.968 731.138 640.968C736.97 640.968 740.858 638.7 740.858 634.488C740.858 631.032 738.266 629.088 732.11 627.9L721.742 626.064C711.59 624.012 706.298 618.504 706.298 611.052C706.298 600.468 715.154 593.448 730.706 593.448C745.61 593.448 753.818 599.604 754.682 610.404H740.318C739.67 605.868 736.214 603.168 729.734 603.168C723.902 603.168 720.446 605.544 720.446 608.892C720.446 612.024 723.362 613.752 729.302 614.94L739.346 616.668C751.118 619.044 756.086 624.768 756.086 632.112C755.978 643.668 745.826 650.58 730.49 650.58ZM321.128 748.5V673.98H348.992C370.592 673.98 379.664 684.132 379.664 701.088C379.664 718.152 370.484 728.088 348.992 728.196L337.328 728.304V748.5H321.128ZM337.328 715.992H347.804C358.388 715.992 362.924 710.808 362.924 701.196C362.924 691.368 358.388 686.184 347.804 686.184H337.328V715.992ZM409.906 749.58C392.626 749.58 383.338 739.212 383.338 721.392C383.338 703.14 393.598 692.448 410.77 692.448C427.402 692.448 436.15 702.276 436.15 720.204V723.552H398.89C399.43 733.704 403.318 738.456 410.662 738.456C416.818 738.456 420.166 735.432 421.354 730.572H435.934C434.314 741.912 425.35 749.58 409.906 749.58ZM399.214 714.696H421.03C420.058 706.704 416.602 702.816 410.338 702.816C404.074 702.816 400.402 706.596 399.214 714.696ZM467.81 749.58C452.15 749.58 444.05 743.964 442.862 732.3H457.226C458.198 737.052 461.87 739.968 468.458 739.968C474.29 739.968 478.178 737.7 478.178 733.488C478.178 730.032 475.586 728.088 469.43 726.9L459.062 725.064C448.91 723.012 443.618 717.504 443.618 710.052C443.618 699.468 452.474 692.448 468.026 692.448C482.93 692.448 491.138 698.604 492.002 709.404H477.638C476.99 704.868 473.534 702.168 467.054 702.168C461.222 702.168 457.766 704.544 457.766 707.892C457.766 711.024 460.682 712.752 466.622 713.94L476.666 715.668C488.438 718.044 493.406 723.768 493.406 731.112C493.298 742.668 483.146 749.58 467.81 749.58ZM524.396 749.58C508.736 749.58 500.636 743.964 499.448 732.3H513.812C514.784 737.052 518.456 739.968 525.044 739.968C530.876 739.968 534.764 737.7 534.764 733.488C534.764 730.032 532.172 728.088 526.016 726.9L515.648 725.064C505.496 723.012 500.204 717.504 500.204 710.052C500.204 699.468 509.06 692.448 524.612 692.448C539.516 692.448 547.724 698.604 548.588 709.404H534.224C533.576 704.868 530.12 702.168 523.64 702.168C517.808 702.168 514.352 704.544 514.352 707.892C514.352 711.024 517.268 712.752 523.208 713.94L533.252 715.668C545.024 718.044 549.992 723.768 549.992 731.112C549.884 742.668 539.732 749.58 524.396 749.58ZM584.114 749.58C566.618 749.58 556.682 738.996 556.682 721.068C556.682 703.032 566.618 692.448 584.114 692.448C601.61 692.448 611.438 703.032 611.438 721.068C611.438 738.996 601.718 749.58 584.114 749.58ZM571.91 721.068C571.91 731.976 576.23 738.132 584.114 738.132C592.214 738.132 596.21 731.868 596.21 721.068C596.21 710.052 592.214 703.896 584.114 703.896C576.122 703.896 571.91 709.944 571.91 721.068ZM636.899 749.58C624.587 749.58 617.999 743.532 617.999 734.352C617.999 725.064 623.615 719.232 638.411 717.504L654.179 715.668V712.86C654.179 706.38 650.615 702.924 644.027 702.924C637.439 702.924 633.983 706.272 633.875 712.32H619.079C619.187 699.36 628.475 692.448 644.351 692.448C661.307 692.448 669.407 699.792 669.407 713.508V748.5H657.527V744.18L658.715 738.996H657.095C654.395 744.396 648.239 749.58 636.899 749.58ZM633.011 732.732C633.011 736.944 635.927 739.212 641.003 739.212C648.563 739.212 654.179 734.568 654.179 727.44V724.524L641.327 725.928C635.279 726.684 633.011 729.06 633.011 732.732ZM680.03 748.5V693.636H695.366V748.5H680.03ZM679.598 685.428V670.74H695.582V685.428H679.598ZM728.908 749.58C713.248 749.58 705.148 743.964 703.96 732.3H718.324C719.296 737.052 722.968 739.968 729.556 739.968C735.388 739.968 739.276 737.7 739.276 733.488C739.276 730.032 736.684 728.088 730.528 726.9L720.16 725.064C710.008 723.012 704.716 717.504 704.716 710.052C704.716 699.468 713.572 692.448 729.124 692.448C744.028 692.448 752.236 698.604 753.1 709.404H738.736C738.088 704.868 734.632 702.168 728.152 702.168C722.32 702.168 718.864 704.544 718.864 707.892C718.864 711.024 721.78 712.752 727.72 713.94L737.764 715.668C749.536 718.044 754.504 723.768 754.504 731.112C754.396 742.668 744.244 749.58 728.908 749.58Z" fill="url(#paint4_linear_211_802)"/>
<path fill-rule="evenodd" clip-rule="evenodd" d="M343.989 941.519H324.012C321.244 941.519 319 943.763 319 946.529V959.03C319 961.799 321.244 964.043 324.012 964.043H343.989C346.757 964.043 349 961.799 349 959.03V946.529C349 943.763 346.757 941.519 343.989 941.519Z" stroke="#868E96" stroke-width="2.5" stroke-linecap="round" stroke-linejoin="round"/>
<path d="M327.424 970.575H340.574" stroke="#868E96" stroke-width="2.5" stroke-linecap="round" stroke-linejoin="round"/>
<path d="M334 964.386V970.575" stroke="#868E96" stroke-width="2.5" stroke-linecap="round" stroke-linejoin="round"/>
<path d="M377.988 967.047H374.548L368.145 944.749H371.267L376.363 963.097L381.778 944.749H384.773L390.188 963.097L395.284 944.749H398.406L392.003 967.047H388.563L383.276 949.241L377.988 967.047ZM414.697 960.357H401.35C401.626 961.759 402.274 962.863 403.293 963.67C404.312 964.456 405.587 964.849 407.116 964.849C409.218 964.849 410.747 964.074 411.702 962.523L414.06 963.861C412.488 966.261 410.152 967.461 407.052 967.461C404.546 967.461 402.486 966.675 400.872 965.104C399.301 963.49 398.515 961.483 398.515 959.083C398.515 956.662 399.29 954.666 400.84 953.095C402.391 951.502 404.397 950.706 406.861 950.706C409.197 950.706 411.097 951.534 412.563 953.19C414.049 954.804 414.792 956.779 414.792 959.115C414.792 959.519 414.76 959.933 414.697 960.357ZM406.861 953.318C405.395 953.318 404.164 953.732 403.166 954.56C402.189 955.388 401.584 956.514 401.35 957.937H411.989C411.756 956.471 411.172 955.335 410.237 954.528C409.303 953.721 408.177 953.318 406.861 953.318ZM426.769 950.706C428.999 950.706 430.9 951.523 432.471 953.159C434.043 954.794 434.828 956.769 434.828 959.083C434.828 961.419 434.043 963.405 432.471 965.04C430.921 966.654 429.02 967.461 426.769 967.461C424.136 967.461 422.129 966.41 420.749 964.307V967.047H417.978V944.749H420.749V953.859C422.129 951.757 424.136 950.706 426.769 950.706ZM426.419 964.785C428.012 964.785 429.349 964.244 430.432 963.161C431.516 962.035 432.057 960.676 432.057 959.083C432.057 957.469 431.516 956.121 430.432 955.038C429.349 953.934 428.012 953.382 426.419 953.382C424.805 953.382 423.457 953.934 422.374 955.038C421.291 956.121 420.749 957.469 420.749 959.083C420.749 960.676 421.291 962.035 422.374 963.161C423.457 964.244 424.805 964.785 426.419 964.785Z" fill="#868E96"/>
<path fill-rule="evenodd" clip-rule="evenodd" d="M521.975 965.016L521.973 947.076C521.973 943.747 519.273 941.047 515.944 941.047H506.751C503.422 941.047 500.722 943.747 500.722 947.077L500.724 965.017C500.724 968.347 503.424 971.047 506.753 971.047H515.944C519.275 971.047 521.975 968.347 521.975 965.016Z" stroke="#868E96" stroke-width="2.5" stroke-linecap="round" stroke-linejoin="round"/>
<path d="M511.349 964.931V964.851M511.349 964.429C511.119 964.429 510.932 964.615 510.932 964.845C510.932 965.075 511.119 965.262 511.349 965.262C511.58 965.262 511.766 965.075 511.766 964.845C511.766 964.615 511.58 964.429 511.349 964.429Z" stroke="#868E96" stroke-width="2.5" stroke-linecap="round" stroke-linejoin="round"/>
<path d="M563.587 967.047H560.306L555.305 958.51H550.049V967.047H547.087V944.749H556.006C557.917 944.749 559.552 945.429 560.911 946.788C562.27 948.126 562.95 949.75 562.95 951.661C562.95 953.105 562.514 954.422 561.644 955.611C560.752 956.822 559.648 957.661 558.331 958.128L563.587 967.047ZM556.006 947.521H550.049V955.834H556.006C557.11 955.834 558.044 955.431 558.809 954.624C559.595 953.817 559.987 952.829 559.987 951.661C559.987 950.493 559.595 949.517 558.809 948.731C558.044 947.924 557.11 947.521 556.006 947.521ZM580.754 960.357H567.407C567.683 961.759 568.331 962.863 569.35 963.67C570.37 964.456 571.644 964.849 573.173 964.849C575.275 964.849 576.804 964.074 577.76 962.523L580.117 963.861C578.545 966.261 576.209 967.461 573.109 967.461C570.603 967.461 568.543 966.675 566.929 965.104C565.358 963.49 564.572 961.483 564.572 959.083C564.572 956.662 565.347 954.666 566.898 953.095C568.448 951.502 570.455 950.706 572.918 950.706C575.254 950.706 577.154 951.534 578.62 953.19C580.106 954.804 580.849 956.779 580.849 959.115C580.849 959.519 580.817 959.933 580.754 960.357ZM572.918 953.318C571.453 953.318 570.221 953.732 569.223 954.56C568.246 955.388 567.641 956.514 567.407 957.937H578.046C577.813 956.471 577.229 955.335 576.294 954.528C575.36 953.721 574.234 953.318 572.918 953.318ZM585.802 955.42C585.802 956.439 586.853 957.236 588.955 957.809C589.741 957.979 590.399 958.16 590.93 958.351C591.482 958.521 592.077 958.786 592.714 959.147C593.372 959.508 593.871 959.986 594.211 960.58C594.551 961.175 594.721 961.876 594.721 962.683C594.721 964.127 594.158 965.284 593.033 966.155C591.907 967.025 590.484 967.461 588.764 967.461C587.235 967.461 585.908 967.132 584.782 966.473C583.678 965.794 582.893 964.881 582.425 963.734L584.814 962.364C585.069 963.129 585.547 963.734 586.248 964.18C586.949 964.626 587.787 964.849 588.764 964.849C589.72 964.849 590.484 964.668 591.058 964.307C591.631 963.946 591.918 963.405 591.918 962.683C591.918 961.6 590.866 960.814 588.764 960.326C588.063 960.134 587.532 959.986 587.171 959.88C586.81 959.773 586.311 959.582 585.674 959.306C585.059 959.03 584.591 958.744 584.273 958.446C583.954 958.128 583.657 957.714 583.381 957.204C583.126 956.673 582.999 956.089 582.999 955.452C582.999 954.072 583.53 952.936 584.591 952.044C585.674 951.152 587.023 950.706 588.637 950.706C589.932 950.706 591.079 951.003 592.077 951.598C593.096 952.171 593.861 952.978 594.37 954.019L592.045 955.325C591.472 953.966 590.336 953.286 588.637 953.286C587.83 953.286 587.15 953.477 586.598 953.859C586.067 954.242 585.802 954.762 585.802 955.42ZM606.793 950.706C609.023 950.706 610.924 951.523 612.495 953.159C614.067 954.794 614.852 956.769 614.852 959.083C614.852 961.419 614.067 963.405 612.495 965.04C610.945 966.654 609.044 967.461 606.793 967.461C604.16 967.461 602.153 966.41 600.773 964.307V973.417H598.002V951.12H600.773V953.859C602.153 951.757 604.16 950.706 606.793 950.706ZM606.443 964.785C608.036 964.785 609.374 964.244 610.457 963.161C611.54 962.035 612.081 960.676 612.081 959.083C612.081 957.469 611.54 956.121 610.457 955.038C609.374 953.934 608.036 953.382 606.443 953.382C604.829 953.382 603.481 953.934 602.398 955.038C601.315 956.121 600.773 957.469 600.773 959.083C600.773 960.676 601.315 962.035 602.398 963.161C603.481 964.244 604.829 964.785 606.443 964.785ZM631.601 965.04C629.987 966.654 628.002 967.461 625.645 967.461C623.287 967.461 621.302 966.654 619.688 965.04C618.074 963.426 617.267 961.44 617.267 959.083C617.267 956.726 618.074 954.741 619.688 953.127C621.302 951.513 623.287 950.706 625.645 950.706C628.002 950.706 629.987 951.513 631.601 953.127C633.236 954.762 634.054 956.747 634.054 959.083C634.054 961.419 633.236 963.405 631.601 965.04ZM625.645 964.753C627.237 964.753 628.575 964.212 629.658 963.129C630.741 962.046 631.283 960.697 631.283 959.083C631.283 957.469 630.741 956.121 629.658 955.038C628.575 953.955 627.237 953.413 625.645 953.413C624.073 953.413 622.746 953.955 621.663 955.038C620.58 956.121 620.038 957.469 620.038 959.083C620.038 960.697 620.58 962.046 621.663 963.129C622.746 964.212 624.073 964.753 625.645 964.753ZM645.252 950.706C647.121 950.706 648.618 951.3 649.744 952.49C650.869 953.658 651.432 955.25 651.432 957.268V967.047H648.661V957.427C648.661 956.153 648.31 955.155 647.61 954.433C646.909 953.711 645.943 953.35 644.711 953.35C643.288 953.35 642.163 953.796 641.334 954.688C640.506 955.558 640.092 956.864 640.092 958.605V967.047H637.321V951.12H640.092V953.413C641.196 951.608 642.916 950.706 645.252 950.706ZM657.69 955.42C657.69 956.439 658.741 957.236 660.843 957.809C661.629 957.979 662.287 958.16 662.818 958.351C663.37 958.521 663.965 958.786 664.602 959.147C665.26 959.508 665.759 959.986 666.099 960.58C666.439 961.175 666.609 961.876 666.609 962.683C666.609 964.127 666.046 965.284 664.92 966.155C663.795 967.025 662.372 967.461 660.652 967.461C659.123 967.461 657.796 967.132 656.67 966.473C655.566 965.794 654.78 964.881 654.313 963.734L656.702 962.364C656.957 963.129 657.435 963.734 658.136 964.18C658.836 964.626 659.675 964.849 660.652 964.849C661.608 964.849 662.372 964.668 662.945 964.307C663.519 963.946 663.805 963.405 663.805 962.683C663.805 961.6 662.754 960.814 660.652 960.326C659.951 960.134 659.42 959.986 659.059 959.88C658.698 959.773 658.199 959.582 657.562 959.306C656.946 959.03 656.479 958.744 656.161 958.446C655.842 958.128 655.545 957.714 655.269 957.204C655.014 956.673 654.887 956.089 654.887 955.452C654.887 954.072 655.417 952.936 656.479 952.044C657.562 951.152 658.911 950.706 660.525 950.706C661.82 950.706 662.967 951.003 663.965 951.598C664.984 952.171 665.749 952.978 666.258 954.019L663.933 955.325C663.36 953.966 662.223 953.286 660.525 953.286C659.718 953.286 659.038 953.477 658.486 953.859C657.955 954.242 657.69 954.762 657.69 955.42ZM671.136 948.221C670.605 948.221 670.159 948.041 669.798 947.68C669.437 947.319 669.256 946.883 669.256 946.374C669.256 945.864 669.437 945.429 669.798 945.068C670.159 944.686 670.605 944.494 671.136 944.494C671.645 944.494 672.081 944.686 672.442 945.068C672.803 945.429 672.983 945.864 672.983 946.374C672.983 946.883 672.803 947.319 672.442 947.68C672.081 948.041 671.645 948.221 671.136 948.221ZM672.505 967.047H669.734V951.12H672.505V967.047ZM682.881 964.084L687.882 951.12H690.876L684.505 967.047H681.256L674.886 951.12H677.88L682.881 964.084ZM707.887 960.357H694.541C694.817 961.759 695.465 962.863 696.484 963.67C697.503 964.456 698.777 964.849 700.306 964.849C702.409 964.849 703.938 964.074 704.893 962.523L707.25 963.861C705.679 966.261 703.343 967.461 700.243 967.461C697.737 967.461 695.677 966.675 694.063 965.104C692.492 963.49 691.706 961.483 691.706 959.083C691.706 956.662 692.481 954.666 694.031 953.095C695.581 951.502 697.588 950.706 700.051 950.706C702.387 950.706 704.288 951.534 705.753 953.19C707.24 954.804 707.983 956.779 707.983 959.115C707.983 959.519 707.951 959.933 707.887 960.357ZM700.051 953.318C698.586 953.318 697.354 953.732 696.356 954.56C695.38 955.388 694.774 956.514 694.541 957.937H705.18C704.946 956.471 704.362 955.335 703.428 954.528C702.493 953.721 701.368 953.318 700.051 953.318Z" fill="#868E96"/>
<rect x="1392" y="377" width="376" height="376" rx="188" fill="#2666CF"/>
<rect x="1486" y="615.28" width="43.7209" height="43.7209" fill="white"/>
<path d="M1558.14 580.302L1601.86 545.325V603.255V659H1558.14V580.302Z" fill="white"/>
<path d="M1630.28 508.163L1674 471V659H1630.28V508.163Z" fill="white"/>
<path d="M1486 545.325H1549.08H1601.86L1561.42 589.046H1486V545.325Z" fill="white"/>
<path d="M1486 471H1674L1630.28 514.721H1486V471Z" fill="white"/>
<path d="M1314.66 848L1335.85 800.917H1344.46L1365.72 848H1356.57L1338.34 805.558H1341.84L1323.68 848H1314.66ZM1324.42 837.104L1326.77 830.243H1352.2L1354.55 837.104H1324.42ZM1371.08 848V800.917H1390.45C1394.62 800.917 1398.19 801.589 1401.15 802.934C1404.15 804.28 1406.46 806.208 1408.07 808.719C1409.69 811.23 1410.5 814.212 1410.5 817.665C1410.5 821.118 1409.69 824.1 1408.07 826.611C1406.46 829.122 1404.15 831.05 1401.15 832.395C1398.19 833.74 1394.62 834.413 1390.45 834.413H1375.92L1379.82 830.31V848H1371.08ZM1379.82 831.252L1375.92 827.014H1390.05C1393.9 827.014 1396.8 826.207 1398.73 824.593C1400.7 822.934 1401.68 820.624 1401.68 817.665C1401.68 814.66 1400.7 812.351 1398.73 810.737C1396.8 809.123 1393.9 808.315 1390.05 808.315H1375.92L1379.82 804.011V831.252ZM1418.61 848V800.917H1427.35V848H1418.61ZM1454.8 832.799V825.804H1473.3V832.799H1454.8ZM1500.65 848V800.917H1522.71C1528.36 800.917 1532.67 802.038 1535.63 804.28C1538.59 806.477 1540.07 809.436 1540.07 813.158C1540.07 815.669 1539.48 817.822 1538.32 819.615C1537.15 821.364 1535.58 822.732 1533.61 823.718C1531.68 824.66 1529.57 825.131 1527.29 825.131L1528.5 822.709C1531.14 822.709 1533.52 823.203 1535.63 824.189C1537.74 825.131 1539.39 826.521 1540.61 828.359C1541.86 830.198 1542.49 832.485 1542.49 835.22C1542.49 839.256 1540.94 842.395 1537.85 844.637C1534.75 846.879 1530.16 848 1524.06 848H1500.65ZM1509.4 841.139H1523.52C1526.79 841.139 1529.31 840.601 1531.05 839.525C1532.8 838.449 1533.68 836.722 1533.68 834.346C1533.68 832.014 1532.8 830.31 1531.05 829.234C1529.31 828.113 1526.79 827.552 1523.52 827.552H1508.72V820.759H1521.77C1524.82 820.759 1527.15 820.221 1528.77 819.145C1530.43 818.068 1531.26 816.454 1531.26 814.302C1531.26 812.104 1530.43 810.468 1528.77 809.392C1527.15 808.315 1524.82 807.777 1521.77 807.777H1509.4V841.139ZM1544.54 848L1565.73 800.917H1574.34L1595.59 848H1586.44L1568.22 805.558H1571.71L1553.55 848H1544.54ZM1554.29 837.104L1556.65 830.243H1582.07L1584.43 837.104H1554.29ZM1622.09 848.673C1618.5 848.673 1615.16 848.09 1612.07 846.924C1609.02 845.713 1606.35 844.032 1604.07 841.879C1601.82 839.682 1600.07 837.104 1598.82 834.144C1597.56 831.184 1596.94 827.956 1596.94 824.458C1596.94 820.961 1597.56 817.732 1598.82 814.773C1600.07 811.813 1601.85 809.257 1604.13 807.105C1606.42 804.907 1609.09 803.226 1612.14 802.06C1615.19 800.849 1618.53 800.244 1622.16 800.244C1626.02 800.244 1629.54 800.917 1632.72 802.262C1635.9 803.562 1638.59 805.513 1640.79 808.114L1635.14 813.427C1633.44 811.589 1631.53 810.221 1629.42 809.324C1627.32 808.383 1625.03 807.912 1622.56 807.912C1620.1 807.912 1617.83 808.315 1615.77 809.123C1613.75 809.93 1611.98 811.073 1610.46 812.553C1608.98 814.033 1607.81 815.781 1606.96 817.799C1606.15 819.817 1605.75 822.037 1605.75 824.458C1605.75 826.88 1606.15 829.099 1606.96 831.117C1607.81 833.135 1608.98 834.884 1610.46 836.364C1611.98 837.843 1613.75 838.987 1615.77 839.794C1617.83 840.601 1620.1 841.005 1622.56 841.005C1625.03 841.005 1627.32 840.556 1629.42 839.66C1631.53 838.718 1633.44 837.305 1635.14 835.422L1640.79 840.803C1638.59 843.359 1635.9 845.31 1632.72 846.655C1629.54 848 1625.99 848.673 1622.09 848.673ZM1656.35 836.902L1655.88 826.543L1680.56 800.917H1690.38L1669.87 822.709L1665.03 828.023L1656.35 836.902ZM1648.55 848V800.917H1657.29V848H1648.55ZM1681.37 848L1663.34 826.543L1669.13 820.154L1691.59 848H1681.37ZM1705 820.49H1728.4V827.687H1705V820.49ZM1705.67 840.668H1732.24V848H1696.93V800.917H1731.3V808.248H1705.67V840.668ZM1741.36 848V800.917H1748.56L1778.09 837.171H1774.52V800.917H1783.2V848H1776L1746.47 811.746H1750.04V848H1741.36ZM1795.19 848V800.917H1815.78C1820.89 800.917 1825.37 801.903 1829.23 803.876C1833.08 805.849 1836.09 808.584 1838.24 812.082C1840.39 815.58 1841.47 819.705 1841.47 824.458C1841.47 829.167 1840.39 833.292 1838.24 836.834C1836.09 840.332 1833.08 843.067 1829.23 845.04C1825.37 847.013 1820.89 848 1815.78 848H1795.19ZM1803.94 840.601H1815.37C1818.91 840.601 1821.96 839.929 1824.52 838.583C1827.12 837.238 1829.12 835.355 1830.51 832.933C1831.94 830.512 1832.66 827.687 1832.66 824.458C1832.66 821.185 1831.94 818.36 1830.51 815.983C1829.12 813.562 1827.12 811.678 1824.52 810.333C1821.96 808.988 1818.91 808.315 1815.37 808.315H1803.94V840.601Z" fill="url(#paint5_linear_211_802)"/>
</g>
<defs>
<filter id="filter0_f_211_802" x="841.742" y="108.418" width="1192.29" height="1002.7" filterUnits="userSpaceOnUse" color-interpolation-filters="sRGB">
<feFlood flood-opacity="0" result="BackgroundImageFix"/>
<feBlend mode="normal" in="SourceGraphic" in2="BackgroundImageFix" result="shape"/>
<feGaussianBlur stdDeviation="115.464" result="effect1_foregroundBlur_211_802"/>
</filter>
<filter id="filter1_f_211_802" x="1006.03" y="315.62" width="488.444" height="575.827" filterUnits="userSpaceOnUse" color-interpolation-filters="sRGB">
<feFlood flood-opacity="0" result="BackgroundImageFix"/>
<feBlend mode="normal" in="SourceGraphic" in2="BackgroundImageFix" result="shape"/>
<feGaussianBlur stdDeviation="4.61857" result="effect1_foregroundBlur_211_802"/>
</filter>
<filter id="filter2_f_211_802" x="984.442" y="276.911" width="631.848" height="707.814" filterUnits="userSpaceOnUse" color-interpolation-filters="sRGB">
<feFlood flood-opacity="0" result="BackgroundImageFix"/>
<feBlend mode="normal" in="SourceGraphic" in2="BackgroundImageFix" result="shape"/>
<feGaussianBlur stdDeviation="16.165" result="effect1_foregroundBlur_211_802"/>
</filter>
<filter id="filter3_f_211_802" x="985.211" y="226.412" width="845.369" height="910.791" filterUnits="userSpaceOnUse" color-interpolation-filters="sRGB">
<feFlood flood-opacity="0" result="BackgroundImageFix"/>
<feBlend mode="normal" in="SourceGraphic" in2="BackgroundImageFix" result="shape"/>
<feGaussianBlur stdDeviation="23.0928" result="effect1_foregroundBlur_211_802"/>
</filter>
<filter id="filter4_f_211_802" x="912.166" y="81.4425" width="1055.66" height="1062.33" filterUnits="userSpaceOnUse" color-interpolation-filters="sRGB">
<feFlood flood-opacity="0" result="BackgroundImageFix"/>
<feBlend mode="normal" in="SourceGraphic" in2="BackgroundImageFix" result="shape"/>
<feGaussianBlur stdDeviation="62.3507" result="effect1_foregroundBlur_211_802"/>
</filter>
<filter id="filter5_f_211_802" x="725.139" y="-161.519" width="1537.21" height="1357.98" filterUnits="userSpaceOnUse" color-interpolation-filters="sRGB">
<feFlood flood-opacity="0" result="BackgroundImageFix"/>
<feBlend mode="normal" in="SourceGraphic" in2="BackgroundImageFix" result="shape"/>
<feGaussianBlur stdDeviation="154.722" result="effect1_foregroundBlur_211_802"/>
</filter>
<filter id="filter6_f_211_802" x="965.926" y="186.195" width="1020.53" height="1028.64" filterUnits="userSpaceOnUse" color-interpolation-filters="sRGB">
<feFlood flood-opacity="0" result="BackgroundImageFix"/>
<feBlend mode="normal" in="SourceGraphic" in2="BackgroundImageFix" result="shape"/>
<feGaussianBlur stdDeviation="71.5878" result="effect1_foregroundBlur_211_802"/>
</filter>
<filter id="filter7_f_211_802" x="1412.58" y="278.258" width="661.215" height="532.569" filterUnits="userSpaceOnUse" color-interpolation-filters="sRGB">
<feFlood flood-opacity="0" result="BackgroundImageFix"/>
<feBlend mode="normal" in="SourceGraphic" in2="BackgroundImageFix" result="shape"/>
<feGaussianBlur stdDeviation="4.61857" result="effect1_foregroundBlur_211_802"/>
</filter>
<filter id="filter8_f_211_802" x="1345.25" y="255.762" width="787.872" height="709.127" filterUnits="userSpaceOnUse" color-interpolation-filters="sRGB">
<feFlood flood-opacity="0" result="BackgroundImageFix"/>
<feBlend mode="normal" in="SourceGraphic" in2="BackgroundImageFix" result="shape"/>
<feGaussianBlur stdDeviation="16.165" result="effect1_foregroundBlur_211_802"/>
</filter>
<filter id="filter9_f_211_802" x="1262.41" y="251.407" width="1003.99" height="889.404" filterUnits="userSpaceOnUse" color-interpolation-filters="sRGB">
<feFlood flood-opacity="0" result="BackgroundImageFix"/>
<feBlend mode="normal" in="SourceGraphic" in2="BackgroundImageFix" result="shape"/>
<feGaussianBlur stdDeviation="23.0928" result="effect1_foregroundBlur_211_802"/>
</filter>
<filter id="filter10_f_211_802" x="1243.72" y="253.616" width="1206.32" height="950.472" filterUnits="userSpaceOnUse" color-interpolation-filters="sRGB">
<feFlood flood-opacity="0" result="BackgroundImageFix"/>
<feBlend mode="normal" in="SourceGraphic" in2="BackgroundImageFix" result="shape"/>
<feGaussianBlur stdDeviation="62.3507" result="effect1_foregroundBlur_211_802"/>
</filter>
<filter id="filter11_f_211_802" x="1135.01" y="142.208" width="1607.61" height="1336.23" filterUnits="userSpaceOnUse" color-interpolation-filters="sRGB">
<feFlood flood-opacity="0" result="BackgroundImageFix"/>
<feBlend mode="normal" in="SourceGraphic" in2="BackgroundImageFix" result="shape"/>
<feGaussianBlur stdDeviation="154.722" result="effect1_foregroundBlur_211_802"/>
</filter>
<filter id="filter12_f_211_802" x="1166.66" y="260.687" width="1151.32" height="1000.86" filterUnits="userSpaceOnUse" color-interpolation-filters="sRGB">
<feFlood flood-opacity="0" result="BackgroundImageFix"/>
<feBlend mode="normal" in="SourceGraphic" in2="BackgroundImageFix" result="shape"/>
<feGaussianBlur stdDeviation="71.5878" result="effect1_foregroundBlur_211_802"/>
</filter>
<filter id="filter13_f_211_802" x="1621.81" y="465.822" width="337.347" height="355.1" filterUnits="userSpaceOnUse" color-interpolation-filters="sRGB">
<feFlood flood-opacity="0" result="BackgroundImageFix"/>
<feBlend mode="normal" in="SourceGraphic" in2="BackgroundImageFix" result="shape"/>
<feGaussianBlur stdDeviation="3.029" result="effect1_foregroundBlur_211_802"/>
</filter>
<filter id="filter14_f_211_802" x="1525.54" y="436.391" width="449.141" height="427.085" filterUnits="userSpaceOnUse" color-interpolation-filters="sRGB">
<feFlood flood-opacity="0" result="BackgroundImageFix"/>
<feBlend mode="normal" in="SourceGraphic" in2="BackgroundImageFix" result="shape"/>
<feGaussianBlur stdDeviation="10.6015" result="effect1_foregroundBlur_211_802"/>
</filter>
<filter id="filter15_f_211_802" x="1347.57" y="396.549" width="610.239" height="559.189" filterUnits="userSpaceOnUse" color-interpolation-filters="sRGB">
<feFlood flood-opacity="0" result="BackgroundImageFix"/>
<feBlend mode="normal" in="SourceGraphic" in2="BackgroundImageFix" result="shape"/>
<feGaussianBlur stdDeviation="15.145" result="effect1_foregroundBlur_211_802"/>
</filter>
<filter id="filter16_f_211_802" x="1350.31" y="315.384" width="638.289" height="755.216" filterUnits="userSpaceOnUse" color-interpolation-filters="sRGB">
<feFlood flood-opacity="0" result="BackgroundImageFix"/>
<feBlend mode="normal" in="SourceGraphic" in2="BackgroundImageFix" result="shape"/>
<feGaussianBlur stdDeviation="40.8915" result="effect1_foregroundBlur_211_802"/>
</filter>
<filter id="filter17_f_211_802" x="1217.32" y="272.801" width="864.766" height="987.893" filterUnits="userSpaceOnUse" color-interpolation-filters="sRGB">
<feFlood flood-opacity="0" result="BackgroundImageFix"/>
<feBlend mode="normal" in="SourceGraphic" in2="BackgroundImageFix" result="shape"/>
<feGaussianBlur stdDeviation="101.472" result="effect1_foregroundBlur_211_802"/>
</filter>
<filter id="filter18_f_211_802" x="1307.48" y="343.491" width="663.493" height="663.494" filterUnits="userSpaceOnUse" color-interpolation-filters="sRGB">
<feFlood flood-opacity="0" result="BackgroundImageFix"/>
<feBlend mode="normal" in="SourceGraphic" in2="BackgroundImageFix" result="shape"/>
<feGaussianBlur stdDeviation="46.9495" result="effect1_foregroundBlur_211_802"/>
</filter>
<linearGradient id="paint0_linear_211_802" x1="1319.22" y1="360.765" x2="1151.06" y2="785.527" gradientUnits="userSpaceOnUse">
<stop stop-color="#C4C4C4"/>
<stop offset="0.943414" stop-color="#C4C4C4" stop-opacity="0"/>
</linearGradient>
<linearGradient id="paint1_linear_211_802" x1="1168.3" y1="538.576" x2="1616.06" y2="821.49" gradientUnits="userSpaceOnUse">
<stop stop-color="#C4C4C4"/>
<stop offset="1" stop-color="#C4C4C4" stop-opacity="0"/>
</linearGradient>
<linearGradient id="paint2_linear_211_802" x1="1721.35" y1="255.135" x2="1666.08" y2="913.966" gradientUnits="userSpaceOnUse">
<stop stop-color="#C4C4C4"/>
<stop offset="1" stop-color="#C4C4C4" stop-opacity="0"/>
</linearGradient>
<linearGradient id="paint3_linear_211_802" x1="1817.37" y1="606.539" x2="1274.81" y2="614.781" gradientUnits="userSpaceOnUse">
<stop stop-color="#C4C4C4"/>
<stop offset="1" stop-color="#C4C4C4" stop-opacity="0"/>
</linearGradient>
<linearGradient id="paint4_linear_211_802" x1="471.696" y1="476.257" x2="233.953" y2="643.096" gradientUnits="userSpaceOnUse">
<stop stop-color="#F8F9FA"/>
<stop offset="1" stop-color="#CDCDCD"/>
</linearGradient>
<linearGradient id="paint5_linear_211_802" x1="1423.54" y1="794.828" x2="1385.11" y2="883.767" gradientUnits="userSpaceOnUse">
<stop stop-color="#F8F9FA"/>
<stop offset="1" stop-color="#CDCDCD"/>
</linearGradient>
<clipPath id="clip0_211_802">
<rect width="2360" height="1192" rx="16" fill="white"/>
</clipPath>
</defs>
</svg>
